<svg width="32" height="30" viewBox="0 0 32 30" fill="none" xmlns="http://www.w3.org/2000/svg">
<mask id="path-1-outside-1_241_30" maskUnits="userSpaceOnUse" x="0" y="0" width="32" height="30" fill="black">
<rect fill="white" width="32" height="30"/>
<path d="M1.00526 4.77504C1.27634 3.92179 1.83692 3.56102 2.65014 3.62974C2.73436 3.63547 2.82121 3.62115 2.93701 3.61542C2.93701 3.1344 2.93701 2.67055 2.93701 2.2067C2.93964 1.44221 3.34494 1.007 4.05027 1.00414C4.73454 1.00414 5.41618 1.00414 6.10045 1.00414C6.8163 1.00414 7.2137 1.44508 7.21897 2.23533C7.21897 2.69059 7.21897 3.14299 7.21897 3.61256H9.57444C9.57444 3.15444 9.57444 2.71063 9.57444 2.26683C9.5797 1.4508 9.99026 1.00414 10.7324 1.00127C11.4062 1.00127 12.0799 1.00127 12.7537 1.00127C13.4327 1.00414 13.8459 1.44794 13.8538 2.18952C13.859 2.65337 13.8538 3.12008 13.8538 3.60683H16.225C16.225 3.17734 16.225 2.74499 16.225 2.31264C16.225 1.41644 16.6066 1.00127 17.4172 1.00127C18.0804 1.00127 18.7463 0.998409 19.4095 1.00127C20.0622 1.00414 20.4912 1.46226 20.5043 2.17234C20.5122 2.63905 20.5043 3.10576 20.5043 3.62688C20.6965 3.62688 20.8754 3.62688 21.057 3.62688C21.8492 3.63833 22.4229 4.21957 22.4282 5.07855C22.4414 7.18304 22.4335 9.28466 22.4282 11.3892C22.4282 11.5352 22.4019 11.6812 22.3835 11.8501H24.7889C24.7889 11.392 24.7889 10.9368 24.7889 10.4844C24.7916 9.69984 25.2127 9.23885 25.9364 9.23599C26.6101 9.23599 27.2839 9.23313 27.9576 9.23599C28.6419 9.23885 29.0656 9.70556 29.0683 10.4557C29.0709 10.911 29.0683 11.3662 29.0683 11.8816C29.9525 11.7786 30.6789 11.9933 31 12.9926V19.9417C30.7237 20.8121 30.1447 21.1042 29.3262 21.0956C27.1286 21.0669 24.931 21.087 22.7361 21.087H22.4308C22.4308 23.3833 22.444 25.6453 22.4256 27.9073C22.4177 28.7548 21.8439 29.3246 21.0597 29.3246C18.1989 29.3274 13.3142 29.3246 10.4535 29.3246C10.0482 29.3246 9.85604 29.1728 9.85341 28.855C9.85341 28.54 10.0587 28.3711 10.4482 28.3682C13.2511 28.3682 18.0778 28.3682 20.8807 28.3682C21.4386 28.3682 21.5544 28.2451 21.5544 27.6467C21.5544 25.6911 21.5544 23.7384 21.5544 21.7828C21.5544 21.2244 21.4281 21.087 20.9149 21.087C14.7828 21.087 8.65067 21.087 2.51855 21.087C2.00272 21.087 1.88166 21.2187 1.88166 21.777C1.88166 23.7527 1.88166 25.7283 1.88166 27.704C1.88166 28.2222 2.01062 28.3654 2.48697 28.3654C5.08457 28.3654 7.68217 28.3654 10.2798 28.3654C10.4061 28.3654 10.5377 28.3654 10.6535 28.4083C10.8667 28.4771 10.9719 28.6603 10.9482 28.8979C10.9246 29.1299 10.7956 29.2873 10.5693 29.316C10.4719 29.3274 10.3745 29.3217 10.2771 29.3217C7.72954 29.3217 5.17931 29.3045 2.63172 29.3332C1.8106 29.3418 1.25792 29.0297 1.00263 28.1678V21.2817C1.21054 20.626 1.58163 20.1793 2.25537 20.1335C2.46855 20.1192 2.68173 20.1335 2.93438 20.1335C2.93438 19.6439 2.93438 19.1801 2.93438 18.7162C2.93701 17.946 3.32389 17.5022 4.02921 17.4879C4.72138 17.4764 5.41618 17.4764 6.10834 17.4879C6.81367 17.4993 7.21107 17.9431 7.2137 18.7076C7.2137 19.1629 7.2137 19.621 7.2137 20.1049H9.59286V12.8322C9.49811 12.8322 9.39547 12.8322 9.29283 12.8322C8.49276 12.8322 7.69269 12.8322 6.88999 12.8322C6.79261 12.8322 6.69261 12.8322 6.59786 12.8151C6.37679 12.7692 6.26099 12.6089 6.25572 12.3684C6.25046 12.1279 6.361 11.9561 6.58207 11.9074C6.71366 11.8788 6.85315 11.8788 6.99 11.8788C11.6088 11.8788 16.2277 11.8788 20.8465 11.8788C21.4571 11.8788 21.5544 11.77 21.5544 11.0971C21.5544 9.173 21.5544 7.25175 21.5544 5.32765C21.5544 4.72636 21.4307 4.58893 20.8912 4.58893C14.7696 4.58893 8.64804 4.58893 2.52382 4.58893C2.00798 4.58893 1.87902 4.72923 1.87902 5.27897C1.87902 7.25462 1.87902 9.23026 1.87902 11.2059C1.87902 11.7385 2.00798 11.8759 2.50803 11.8788C3.15282 11.8788 6.20778 11.8788 6.85257 11.8788C6.94995 11.8788 7.04996 11.8788 7.14471 11.8988C7.37894 11.9475 7.5079 12.1193 7.5 12.3684C7.49474 12.6175 7.36051 12.8151 7.12365 12.8151C6.23673 12.8236 2.93701 12.8437 2.05009 12.7893C1.60795 12.7607 1.29739 12.4171 1.11054 11.9704C1.07632 11.8874 1.03685 11.8043 1 11.7213C1 9.40492 1 7.08855 1 4.77218L1.00526 4.77504ZM20.2833 20.1364C23.3599 20.1364 26.4364 20.1364 29.513 20.1364C29.9868 20.1364 30.1289 19.9846 30.1289 19.4778C30.1289 17.4907 30.1289 15.5037 30.1289 13.5166C30.1289 12.984 29.9973 12.838 29.5025 12.838C23.3599 12.838 17.2172 12.838 11.0746 12.838C10.5877 12.838 10.4535 12.9897 10.4535 13.528C10.4535 15.4836 10.4535 17.4392 10.4535 19.3919C10.4535 20.0047 10.5745 20.1364 11.1456 20.1364C14.1933 20.1364 17.2383 20.1364 20.2859 20.1364H20.2833ZM3.81604 20.1135H6.33731C6.33731 19.6325 6.33205 19.1772 6.33731 18.7219C6.33994 18.5301 6.26625 18.4499 6.09518 18.4499C5.41091 18.4499 4.72927 18.4499 4.045 18.4499C3.89499 18.4499 3.80814 18.5043 3.81077 18.6905C3.81604 19.1572 3.81077 19.6239 3.81077 20.1135H3.81604ZM6.33731 3.61829C6.33731 3.12867 6.34784 2.65337 6.32678 2.18093C6.32415 2.10649 6.18993 1.97764 6.11361 1.97478C5.42144 1.9576 4.72927 1.96046 4.03974 1.97192C3.96605 1.97192 3.83183 2.06354 3.83183 2.11794C3.81604 2.62187 3.8213 3.12294 3.8213 3.62115H6.33731V3.61829ZM19.6306 3.61542C19.6306 3.12867 19.6437 2.66196 19.6201 2.19811C19.6148 2.11508 19.47 1.97478 19.3885 1.97192C18.7068 1.95474 18.0225 1.95474 17.3409 1.97192C17.262 1.97192 17.1251 2.10076 17.1225 2.17521C17.1014 2.64764 17.1119 3.12294 17.1119 3.61542H19.6332H19.6306ZM25.6758 11.8645H28.1945C28.1945 11.3634 28.2024 10.8766 28.184 10.3927C28.184 10.3269 28.0445 10.2095 27.9682 10.2095C27.2865 10.1952 26.6022 10.1923 25.9206 10.2095C25.8364 10.2095 25.6916 10.3527 25.6864 10.4357C25.6627 10.8995 25.6758 11.3662 25.6758 11.8616V11.8645ZM12.9747 3.61542C12.9747 3.12294 12.9853 2.64764 12.9642 2.17521C12.9616 2.10076 12.8195 1.97764 12.7405 1.97478C12.0589 1.9576 11.3772 1.9576 10.6956 1.97478C10.614 1.97478 10.4693 2.1208 10.4666 2.2067C10.4429 2.67055 10.4561 3.1344 10.4561 3.61542H12.9774H12.9747Z"/>
</mask>
<path d="M1.00526 4.77504C1.27634 3.92179 1.83692 3.56102 2.65014 3.62974C2.73436 3.63547 2.82121 3.62115 2.93701 3.61542C2.93701 3.1344 2.93701 2.67055 2.93701 2.2067C2.93964 1.44221 3.34494 1.007 4.05027 1.00414C4.73454 1.00414 5.41618 1.00414 6.10045 1.00414C6.8163 1.00414 7.2137 1.44508 7.21897 2.23533C7.21897 2.69059 7.21897 3.14299 7.21897 3.61256H9.57444C9.57444 3.15444 9.57444 2.71063 9.57444 2.26683C9.5797 1.4508 9.99026 1.00414 10.7324 1.00127C11.4062 1.00127 12.0799 1.00127 12.7537 1.00127C13.4327 1.00414 13.8459 1.44794 13.8538 2.18952C13.859 2.65337 13.8538 3.12008 13.8538 3.60683H16.225C16.225 3.17734 16.225 2.74499 16.225 2.31264C16.225 1.41644 16.6066 1.00127 17.4172 1.00127C18.0804 1.00127 18.7463 0.998409 19.4095 1.00127C20.0622 1.00414 20.4912 1.46226 20.5043 2.17234C20.5122 2.63905 20.5043 3.10576 20.5043 3.62688C20.6965 3.62688 20.8754 3.62688 21.057 3.62688C21.8492 3.63833 22.4229 4.21957 22.4282 5.07855C22.4414 7.18304 22.4335 9.28466 22.4282 11.3892C22.4282 11.5352 22.4019 11.6812 22.3835 11.8501H24.7889C24.7889 11.392 24.7889 10.9368 24.7889 10.4844C24.7916 9.69984 25.2127 9.23885 25.9364 9.23599C26.6101 9.23599 27.2839 9.23313 27.9576 9.23599C28.6419 9.23885 29.0656 9.70556 29.0683 10.4557C29.0709 10.911 29.0683 11.3662 29.0683 11.8816C29.9525 11.7786 30.6789 11.9933 31 12.9926V19.9417C30.7237 20.8121 30.1447 21.1042 29.3262 21.0956C27.1286 21.0669 24.931 21.087 22.7361 21.087H22.4308C22.4308 23.3833 22.444 25.6453 22.4256 27.9073C22.4177 28.7548 21.8439 29.3246 21.0597 29.3246C18.1989 29.3274 13.3142 29.3246 10.4535 29.3246C10.0482 29.3246 9.85604 29.1728 9.85341 28.855C9.85341 28.54 10.0587 28.3711 10.4482 28.3682C13.2511 28.3682 18.0778 28.3682 20.8807 28.3682C21.4386 28.3682 21.5544 28.2451 21.5544 27.6467C21.5544 25.6911 21.5544 23.7384 21.5544 21.7828C21.5544 21.2244 21.4281 21.087 20.9149 21.087C14.7828 21.087 8.65067 21.087 2.51855 21.087C2.00272 21.087 1.88166 21.2187 1.88166 21.777C1.88166 23.7527 1.88166 25.7283 1.88166 27.704C1.88166 28.2222 2.01062 28.3654 2.48697 28.3654C5.08457 28.3654 7.68217 28.3654 10.2798 28.3654C10.4061 28.3654 10.5377 28.3654 10.6535 28.4083C10.8667 28.4771 10.9719 28.6603 10.9482 28.8979C10.9246 29.1299 10.7956 29.2873 10.5693 29.316C10.4719 29.3274 10.3745 29.3217 10.2771 29.3217C7.72954 29.3217 5.17931 29.3045 2.63172 29.3332C1.8106 29.3418 1.25792 29.0297 1.00263 28.1678V21.2817C1.21054 20.626 1.58163 20.1793 2.25537 20.1335C2.46855 20.1192 2.68173 20.1335 2.93438 20.1335C2.93438 19.6439 2.93438 19.1801 2.93438 18.7162C2.93701 17.946 3.32389 17.5022 4.02921 17.4879C4.72138 17.4764 5.41618 17.4764 6.10834 17.4879C6.81367 17.4993 7.21107 17.9431 7.2137 18.7076C7.2137 19.1629 7.2137 19.621 7.2137 20.1049H9.59286V12.8322C9.49811 12.8322 9.39547 12.8322 9.29283 12.8322C8.49276 12.8322 7.69269 12.8322 6.88999 12.8322C6.79261 12.8322 6.69261 12.8322 6.59786 12.8151C6.37679 12.7692 6.26099 12.6089 6.25572 12.3684C6.25046 12.1279 6.361 11.9561 6.58207 11.9074C6.71366 11.8788 6.85315 11.8788 6.99 11.8788C11.6088 11.8788 16.2277 11.8788 20.8465 11.8788C21.4571 11.8788 21.5544 11.77 21.5544 11.0971C21.5544 9.173 21.5544 7.25175 21.5544 5.32765C21.5544 4.72636 21.4307 4.58893 20.8912 4.58893C14.7696 4.58893 8.64804 4.58893 2.52382 4.58893C2.00798 4.58893 1.87902 4.72923 1.87902 5.27897C1.87902 7.25462 1.87902 9.23026 1.87902 11.2059C1.87902 11.7385 2.00798 11.8759 2.50803 11.8788C3.15282 11.8788 6.20778 11.8788 6.85257 11.8788C6.94995 11.8788 7.04996 11.8788 7.14471 11.8988C7.37894 11.9475 7.5079 12.1193 7.5 12.3684C7.49474 12.6175 7.36051 12.8151 7.12365 12.8151C6.23673 12.8236 2.93701 12.8437 2.05009 12.7893C1.60795 12.7607 1.29739 12.4171 1.11054 11.9704C1.07632 11.8874 1.03685 11.8043 1 11.7213C1 9.40492 1 7.08855 1 4.77218L1.00526 4.77504ZM20.2833 20.1364C23.3599 20.1364 26.4364 20.1364 29.513 20.1364C29.9868 20.1364 30.1289 19.9846 30.1289 19.4778C30.1289 17.4907 30.1289 15.5037 30.1289 13.5166C30.1289 12.984 29.9973 12.838 29.5025 12.838C23.3599 12.838 17.2172 12.838 11.0746 12.838C10.5877 12.838 10.4535 12.9897 10.4535 13.528C10.4535 15.4836 10.4535 17.4392 10.4535 19.3919C10.4535 20.0047 10.5745 20.1364 11.1456 20.1364C14.1933 20.1364 17.2383 20.1364 20.2859 20.1364H20.2833ZM3.81604 20.1135H6.33731C6.33731 19.6325 6.33205 19.1772 6.33731 18.7219C6.33994 18.5301 6.26625 18.4499 6.09518 18.4499C5.41091 18.4499 4.72927 18.4499 4.045 18.4499C3.89499 18.4499 3.80814 18.5043 3.81077 18.6905C3.81604 19.1572 3.81077 19.6239 3.81077 20.1135H3.81604ZM6.33731 3.61829C6.33731 3.12867 6.34784 2.65337 6.32678 2.18093C6.32415 2.10649 6.18993 1.97764 6.11361 1.97478C5.42144 1.9576 4.72927 1.96046 4.03974 1.97192C3.96605 1.97192 3.83183 2.06354 3.83183 2.11794C3.81604 2.62187 3.8213 3.12294 3.8213 3.62115H6.33731V3.61829ZM19.6306 3.61542C19.6306 3.12867 19.6437 2.66196 19.6201 2.19811C19.6148 2.11508 19.47 1.97478 19.3885 1.97192C18.7068 1.95474 18.0225 1.95474 17.3409 1.97192C17.262 1.97192 17.1251 2.10076 17.1225 2.17521C17.1014 2.64764 17.1119 3.12294 17.1119 3.61542H19.6332H19.6306ZM25.6758 11.8645H28.1945C28.1945 11.3634 28.2024 10.8766 28.184 10.3927C28.184 10.3269 28.0445 10.2095 27.9682 10.2095C27.2865 10.1952 26.6022 10.1923 25.9206 10.2095C25.8364 10.2095 25.6916 10.3527 25.6864 10.4357C25.6627 10.8995 25.6758 11.3662 25.6758 11.8616V11.8645ZM12.9747 3.61542C12.9747 3.12294 12.9853 2.64764 12.9642 2.17521C12.9616 2.10076 12.8195 1.97764 12.7405 1.97478C12.0589 1.9576 11.3772 1.9576 10.6956 1.97478C10.614 1.97478 10.4693 2.1208 10.4666 2.2067C10.4429 2.67055 10.4561 3.1344 10.4561 3.61542H12.9774H12.9747Z" fill="#191717"/>
<path d="M1.00526 4.77504C1.27634 3.92179 1.83692 3.56102 2.65014 3.62974C2.73436 3.63547 2.82121 3.62115 2.93701 3.61542C2.93701 3.1344 2.93701 2.67055 2.93701 2.2067C2.93964 1.44221 3.34494 1.007 4.05027 1.00414C4.73454 1.00414 5.41618 1.00414 6.10045 1.00414C6.8163 1.00414 7.2137 1.44508 7.21897 2.23533C7.21897 2.69059 7.21897 3.14299 7.21897 3.61256H9.57444C9.57444 3.15444 9.57444 2.71063 9.57444 2.26683C9.5797 1.4508 9.99026 1.00414 10.7324 1.00127C11.4062 1.00127 12.0799 1.00127 12.7537 1.00127C13.4327 1.00414 13.8459 1.44794 13.8538 2.18952C13.859 2.65337 13.8538 3.12008 13.8538 3.60683H16.225C16.225 3.17734 16.225 2.74499 16.225 2.31264C16.225 1.41644 16.6066 1.00127 17.4172 1.00127C18.0804 1.00127 18.7463 0.998409 19.4095 1.00127C20.0622 1.00414 20.4912 1.46226 20.5043 2.17234C20.5122 2.63905 20.5043 3.10576 20.5043 3.62688C20.6965 3.62688 20.8754 3.62688 21.057 3.62688C21.8492 3.63833 22.4229 4.21957 22.4282 5.07855C22.4414 7.18304 22.4335 9.28466 22.4282 11.3892C22.4282 11.5352 22.4019 11.6812 22.3835 11.8501H24.7889C24.7889 11.392 24.7889 10.9368 24.7889 10.4844C24.7916 9.69984 25.2127 9.23885 25.9364 9.23599C26.6101 9.23599 27.2839 9.23313 27.9576 9.23599C28.6419 9.23885 29.0656 9.70556 29.0683 10.4557C29.0709 10.911 29.0683 11.3662 29.0683 11.8816C29.9525 11.7786 30.6789 11.9933 31 12.9926V19.9417C30.7237 20.8121 30.1447 21.1042 29.3262 21.0956C27.1286 21.0669 24.931 21.087 22.7361 21.087H22.4308C22.4308 23.3833 22.444 25.6453 22.4256 27.9073C22.4177 28.7548 21.8439 29.3246 21.0597 29.3246C18.1989 29.3274 13.3142 29.3246 10.4535 29.3246C10.0482 29.3246 9.85604 29.1728 9.85341 28.855C9.85341 28.54 10.0587 28.3711 10.4482 28.3682C13.2511 28.3682 18.0778 28.3682 20.8807 28.3682C21.4386 28.3682 21.5544 28.2451 21.5544 27.6467C21.5544 25.6911 21.5544 23.7384 21.5544 21.7828C21.5544 21.2244 21.4281 21.087 20.9149 21.087C14.7828 21.087 8.65067 21.087 2.51855 21.087C2.00272 21.087 1.88166 21.2187 1.88166 21.777C1.88166 23.7527 1.88166 25.7283 1.88166 27.704C1.88166 28.2222 2.01062 28.3654 2.48697 28.3654C5.08457 28.3654 7.68217 28.3654 10.2798 28.3654C10.4061 28.3654 10.5377 28.3654 10.6535 28.4083C10.8667 28.4771 10.9719 28.6603 10.9482 28.8979C10.9246 29.1299 10.7956 29.2873 10.5693 29.316C10.4719 29.3274 10.3745 29.3217 10.2771 29.3217C7.72954 29.3217 5.17931 29.3045 2.63172 29.3332C1.8106 29.3418 1.25792 29.0297 1.00263 28.1678V21.2817C1.21054 20.626 1.58163 20.1793 2.25537 20.1335C2.46855 20.1192 2.68173 20.1335 2.93438 20.1335C2.93438 19.6439 2.93438 19.1801 2.93438 18.7162C2.93701 17.946 3.32389 17.5022 4.02921 17.4879C4.72138 17.4764 5.41618 17.4764 6.10834 17.4879C6.81367 17.4993 7.21107 17.9431 7.2137 18.7076C7.2137 19.1629 7.2137 19.621 7.2137 20.1049H9.59286V12.8322C9.49811 12.8322 9.39547 12.8322 9.29283 12.8322C8.49276 12.8322 7.69269 12.8322 6.88999 12.8322C6.79261 12.8322 6.69261 12.8322 6.59786 12.8151C6.37679 12.7692 6.26099 12.6089 6.25572 12.3684C6.25046 12.1279 6.361 11.9561 6.58207 11.9074C6.71366 11.8788 6.85315 11.8788 6.99 11.8788C11.6088 11.8788 16.2277 11.8788 20.8465 11.8788C21.4571 11.8788 21.5544 11.77 21.5544 11.0971C21.5544 9.173 21.5544 7.25175 21.5544 5.32765C21.5544 4.72636 21.4307 4.58893 20.8912 4.58893C14.7696 4.58893 8.64804 4.58893 2.52382 4.58893C2.00798 4.58893 1.87902 4.72923 1.87902 5.27897C1.87902 7.25462 1.87902 9.23026 1.87902 11.2059C1.87902 11.7385 2.00798 11.8759 2.50803 11.8788C3.15282 11.8788 6.20778 11.8788 6.85257 11.8788C6.94995 11.8788 7.04996 11.8788 7.14471 11.8988C7.37894 11.9475 7.5079 12.1193 7.5 12.3684C7.49474 12.6175 7.36051 12.8151 7.12365 12.8151C6.23673 12.8236 2.93701 12.8437 2.05009 12.7893C1.60795 12.7607 1.29739 12.4171 1.11054 11.9704C1.07632 11.8874 1.03685 11.8043 1 11.7213C1 9.40492 1 7.08855 1 4.77218L1.00526 4.77504ZM20.2833 20.1364C23.3599 20.1364 26.4364 20.1364 29.513 20.1364C29.9868 20.1364 30.1289 19.9846 30.1289 19.4778C30.1289 17.4907 30.1289 15.5037 30.1289 13.5166C30.1289 12.984 29.9973 12.838 29.5025 12.838C23.3599 12.838 17.2172 12.838 11.0746 12.838C10.5877 12.838 10.4535 12.9897 10.4535 13.528C10.4535 15.4836 10.4535 17.4392 10.4535 19.3919C10.4535 20.0047 10.5745 20.1364 11.1456 20.1364C14.1933 20.1364 17.2383 20.1364 20.2859 20.1364H20.2833ZM3.81604 20.1135H6.33731C6.33731 19.6325 6.33205 19.1772 6.33731 18.7219C6.33994 18.5301 6.26625 18.4499 6.09518 18.4499C5.41091 18.4499 4.72927 18.4499 4.045 18.4499C3.89499 18.4499 3.80814 18.5043 3.81077 18.6905C3.81604 19.1572 3.81077 19.6239 3.81077 20.1135H3.81604ZM6.33731 3.61829C6.33731 3.12867 6.34784 2.65337 6.32678 2.18093C6.32415 2.10649 6.18993 1.97764 6.11361 1.97478C5.42144 1.9576 4.72927 1.96046 4.03974 1.97192C3.96605 1.97192 3.83183 2.06354 3.83183 2.11794C3.81604 2.62187 3.8213 3.12294 3.8213 3.62115H6.33731V3.61829ZM19.6306 3.61542C19.6306 3.12867 19.6437 2.66196 19.6201 2.19811C19.6148 2.11508 19.47 1.97478 19.3885 1.97192C18.7068 1.95474 18.0225 1.95474 17.3409 1.97192C17.262 1.97192 17.1251 2.10076 17.1225 2.17521C17.1014 2.64764 17.1119 3.12294 17.1119 3.61542H19.6332H19.6306ZM25.6758 11.8645H28.1945C28.1945 11.3634 28.2024 10.8766 28.184 10.3927C28.184 10.3269 28.0445 10.2095 27.9682 10.2095C27.2865 10.1952 26.6022 10.1923 25.9206 10.2095C25.8364 10.2095 25.6916 10.3527 25.6864 10.4357C25.6627 10.8995 25.6758 11.3662 25.6758 11.8616V11.8645ZM12.9747 3.61542C12.9747 3.12294 12.9853 2.64764 12.9642 2.17521C12.9616 2.10076 12.8195 1.97764 12.7405 1.97478C12.0589 1.9576 11.3772 1.9576 10.6956 1.97478C10.614 1.97478 10.4693 2.1208 10.4666 2.2067C10.4429 2.67055 10.4561 3.1344 10.4561 3.61542H12.9774H12.9747Z" stroke="#191717" stroke-width="0.2" stroke-miterlimit="10" mask="url(#path-1-outside-1_241_30)"/>
</svg>
