<svg width="32" height="32" viewBox="0 0 32 32" fill="none" xmlns="http://www.w3.org/2000/svg">
<path d="M5.14026 24.0879C4.92336 23.0448 4.95339 22.0347 5.28041 21.0444C5.88774 19.2058 7.10574 17.9217 8.91772 17.1988C9.13128 17.113 9.19468 17.0139 9.19468 16.7895C9.18467 14.0629 9.19468 11.333 9.18467 8.60641C9.17799 7.26292 9.54506 6.04487 10.3526 4.96216C10.5228 4.73439 10.5395 4.52313 10.436 4.26566C10.139 3.51304 9.8554 2.75382 9.57176 1.9979C9.2414 1.11655 9.7286 0.416748 10.6763 0.416748C17.0199 0.416748 23.3635 0.416748 29.707 0.416748C30.6814 0.416748 31.1753 1.15946 30.7882 2.04082C30.4679 2.77363 30.1475 3.50644 29.8172 4.23265C29.6903 4.50993 29.717 4.73439 29.9239 4.97206C30.8383 6.02177 31.2587 7.24972 31.2587 8.63612C31.2521 12.4322 31.2521 16.2316 31.2587 20.0277C31.2587 21.424 30.8349 22.6586 29.9106 23.7149C29.7204 23.9327 29.697 24.1473 29.8105 24.4015C30.1442 25.1409 30.4712 25.8803 30.7949 26.623C31.172 27.4879 30.6781 28.2372 29.7271 28.2405C27.8183 28.2405 25.9096 28.2405 24.0008 28.2405C23.8907 28.2405 23.7806 28.2405 23.6671 28.2405C23.7472 28.5574 23.8406 28.8512 23.8907 29.1548C24.0742 30.2376 23.4168 31.0001 22.3123 31.0001C15.5249 31.0001 8.73418 31.0001 1.94678 31.0001C0.838906 31.0001 0.1882 30.2409 0.365059 29.1581C0.59531 27.7486 1.54634 26.7683 2.94787 26.4877C3.03463 26.4712 3.16144 26.3886 3.17812 26.316C3.43507 25.2432 4.08912 24.5137 5.14026 24.0846V24.0879ZM17.1934 22.6058C17.3002 22.6058 17.3769 22.6058 17.457 22.6058C18.2612 22.6223 18.9587 22.8995 19.5293 23.4574C19.6895 23.6158 19.8496 23.6621 20.0632 23.6621C21.9719 23.6555 23.8807 23.6588 25.7928 23.6621C25.9029 23.6621 26.0163 23.6588 26.1265 23.6753C26.3801 23.7182 26.5169 23.8832 26.5236 24.1308C26.5269 24.3652 26.4001 24.5335 26.1665 24.5896C26.0397 24.6193 25.9062 24.6193 25.7761 24.6193C24.0776 24.6193 22.3824 24.6193 20.6839 24.6193C20.5704 24.6193 20.4536 24.6193 20.4036 24.6193V26.4316C20.4036 26.4316 20.4503 26.4448 20.4903 26.4448C21.3746 26.4085 22.1655 26.6428 22.8462 27.2139C22.913 27.27 23.0331 27.2832 23.1265 27.2832C25.3089 27.2865 27.4913 27.2865 29.6737 27.2832C29.994 27.2832 30.0174 27.2469 29.8872 26.9564C29.5769 26.25 29.2766 25.5436 28.9529 24.8438C28.6459 24.1803 28.736 23.596 29.2198 23.0415C29.9406 22.2162 30.291 21.2425 30.291 20.1531C30.291 16.2745 30.291 12.3992 30.291 8.52059C30.291 7.41807 29.9306 6.44099 29.2031 5.60585C28.7293 5.06119 28.6459 4.48352 28.9462 3.82993C29.2632 3.14003 29.5635 2.44023 29.8705 1.74703C30.024 1.39713 30.0107 1.37402 29.6336 1.37402C28.5825 1.37402 27.5313 1.37402 26.4802 1.37402C21.2478 1.37402 16.0121 1.37402 10.7797 1.37402C10.406 1.37402 10.3893 1.39713 10.5228 1.74703C10.7964 2.47654 11.0667 3.20935 11.3537 3.93226C11.5806 4.50333 11.5239 5.01828 11.1502 5.51342C10.4627 6.42778 10.1557 7.45768 10.1591 8.59651C10.1691 11.234 10.1591 13.8747 10.1591 16.5122C10.1591 16.6178 10.1591 16.7268 10.1591 16.8522C11.9744 16.6244 13.5861 17.0304 14.9743 18.1693C16.3625 19.3081 17.0799 20.7935 17.1967 22.6058H17.1934ZM12.0978 30.0428C15.5016 30.0428 18.9086 30.0428 22.3123 30.0428C22.8028 30.0428 22.9897 29.8315 22.9397 29.3529C22.8429 28.4088 22.1388 27.6133 21.1844 27.4615C20.7106 27.3855 20.22 27.4152 19.7362 27.4053C19.1856 27.3954 19.002 27.0851 19.2223 26.5966C19.3457 26.3193 19.4592 26.0123 19.4792 25.7153C19.566 24.3355 18.318 23.3386 16.9031 23.6356C16.4392 23.7314 16.2157 23.5465 16.209 23.0811C16.2057 22.7609 16.199 22.4407 16.1589 22.1238C15.8052 19.2751 12.9521 17.2582 10.1157 17.8458C7.16247 18.4565 5.40388 21.2524 6.15136 24.1473C6.28151 24.6457 6.17139 24.824 5.67418 24.9461C4.77987 25.164 4.15252 25.9001 4.09579 26.8079C4.06576 27.2568 3.92561 27.3954 3.48513 27.4053C2.37392 27.435 1.52632 28.158 1.33278 29.2341C1.22933 29.8183 1.41287 30.0428 2.00351 30.0428C5.36718 30.0428 8.73418 30.0428 12.0978 30.0428Z" fill="#191717" stroke="#191717" stroke-width="0.2" stroke-miterlimit="10"/>
<path d="M20.2368 7.73486C21.5282 7.73486 22.8229 7.73486 24.1143 7.73486C25.3423 7.73486 26.1599 8.5502 26.1632 9.76825C26.1632 10.8576 26.1632 11.9469 26.1632 13.0329C26.1599 14.2311 25.3357 15.0465 24.1277 15.0498C21.5215 15.0498 18.9187 15.0498 16.3125 15.0498C15.1078 15.0498 14.2836 14.2278 14.2803 13.0296C14.2803 11.9304 14.2803 10.8312 14.2803 9.73524C14.2836 8.5568 15.1112 7.73816 16.2991 7.73486C17.6106 7.73486 18.9253 7.73486 20.2368 7.73486ZM20.2368 8.69214C18.922 8.69214 17.6106 8.69214 16.2958 8.69214C15.6584 8.69214 15.2513 9.09155 15.2513 9.71874C15.248 10.8279 15.2513 11.937 15.2513 13.0461C15.2513 13.6997 15.6484 14.0859 16.3125 14.0859C18.9187 14.0859 21.5248 14.0859 24.131 14.0859C24.7951 14.0859 25.1888 13.6964 25.1922 13.0428C25.1922 11.9436 25.1922 10.8444 25.1922 9.74514C25.1922 9.07175 24.7984 8.68884 24.1143 8.68884C22.8229 8.68884 21.5282 8.68884 20.2368 8.68884V8.69214Z" fill="#191717" stroke="#191717" stroke-width="0.2" stroke-miterlimit="10"/>
<path d="M20.2202 4.04781C22.0789 4.04781 23.9375 4.04781 25.7962 4.04781C25.9064 4.04781 26.0198 4.04451 26.1299 4.06432C26.3835 4.11053 26.5204 4.27558 26.5204 4.52315C26.5204 4.75752 26.3936 4.92257 26.1566 4.97868C26.0398 5.00509 25.9164 5.00839 25.7962 5.00839C22.0789 5.00839 18.3615 5.00839 14.6441 5.00839C14.6241 5.00839 14.604 5.00839 14.584 5.00839C14.1502 5.00179 13.9166 4.83344 13.9166 4.52645C13.9166 4.21616 14.1469 4.05111 14.584 4.05111C16.4627 4.05111 18.3415 4.05111 20.2202 4.05111V4.04781Z" fill="#191717" stroke="#191717" stroke-width="0.2" stroke-miterlimit="10"/>
<path d="M16.4793 3.17646C16.1757 3.17646 15.8753 3.18306 15.5717 3.17646C15.2613 3.16655 15.0645 2.9751 15.0645 2.70112C15.0645 2.42384 15.2613 2.22908 15.5717 2.22248C16.1757 2.21588 16.7797 2.21588 17.3837 2.22248C17.6873 2.22578 17.8975 2.43374 17.8975 2.69782C17.8975 2.96189 17.6873 3.16655 17.3837 3.17646C17.0833 3.18636 16.7797 3.17646 16.476 3.17646H16.4793Z" fill="#191717" stroke="#191717" stroke-width="0.2" stroke-miterlimit="10"/>
<path d="M23.9543 3.17627C23.684 3.17627 23.4104 3.17627 23.1401 3.17627C22.7697 3.17297 22.5394 2.98482 22.5428 2.69103C22.5494 2.40715 22.7697 2.2223 23.1234 2.219C23.6873 2.219 24.2513 2.2157 24.8152 2.219C25.1723 2.219 25.3792 2.40715 25.3758 2.70424C25.3725 2.99802 25.1623 3.17297 24.8019 3.17627C24.5182 3.17627 24.2379 3.17627 23.9543 3.17627Z" fill="#191717" stroke="#191717" stroke-width="0.2" stroke-miterlimit="10"/>
<path d="M20.2034 3.17646C19.9131 3.17646 19.6194 3.18306 19.3291 3.17646C19.0154 3.16985 18.8185 2.985 18.8119 2.71102C18.8052 2.42054 19.0054 2.22578 19.3358 2.22248C19.9298 2.21588 20.5237 2.21588 21.1177 2.22248C21.4347 2.22578 21.6283 2.41064 21.6349 2.68792C21.6416 2.9784 21.4414 3.16985 21.111 3.17646C20.8107 3.18306 20.507 3.17646 20.2067 3.17646H20.2034Z" fill="#191717" stroke="#191717" stroke-width="0.2" stroke-miterlimit="10"/>
<path d="M13.109 3.1731C12.9288 3.1731 12.7452 3.183 12.565 3.1731C12.2947 3.15329 12.1079 2.95853 12.1012 2.71096C12.0945 2.45019 12.2881 2.23563 12.5717 2.22572C12.9454 2.21252 13.3192 2.21252 13.6929 2.22572C13.9632 2.23563 14.1501 2.43698 14.1568 2.68786C14.1634 2.94863 13.9699 3.15659 13.6862 3.1764C13.496 3.1896 13.3025 3.1764 13.1123 3.1764L13.109 3.1731Z" fill="#191717" stroke="#191717" stroke-width="0.2" stroke-miterlimit="10"/>
<path d="M27.3076 3.17301C27.1274 3.17301 26.9439 3.18291 26.7637 3.17301C26.4767 3.1565 26.2831 2.95184 26.2865 2.69107C26.2898 2.43029 26.4834 2.22893 26.7737 2.22233C27.1374 2.21243 27.5011 2.20913 27.8649 2.22233C28.1519 2.23223 28.3454 2.4435 28.3421 2.70427C28.3387 2.96505 28.1418 3.1532 27.8515 3.17631C27.8315 3.17631 27.8115 3.17631 27.7915 3.17631C27.6313 3.17631 27.4678 3.17631 27.3076 3.17631V3.17301Z" fill="#191717" stroke="#191717" stroke-width="0.2" stroke-miterlimit="10"/>
<path d="M24.1877 26.4447C23.9942 26.4447 23.804 26.4546 23.6138 26.4447C23.3268 26.4282 23.1332 26.2269 23.1366 25.9661C23.1366 25.7053 23.3335 25.504 23.6238 25.4941C23.9875 25.4842 24.3512 25.4809 24.715 25.4941C25.0019 25.504 25.1955 25.7119 25.1955 25.9727C25.1955 26.2335 24.9986 26.4282 24.7083 26.4447C24.5381 26.4546 24.3646 26.4447 24.1944 26.4447H24.1877Z" fill="#191717" stroke="#191717" stroke-width="0.2" stroke-miterlimit="10"/>
<path d="M27.3346 26.4415C27.141 26.4415 26.9508 26.4514 26.7606 26.4415C26.477 26.4217 26.2834 26.2138 26.2901 25.953C26.2968 25.7021 26.4836 25.5008 26.7539 25.4909C27.1277 25.4777 27.5014 25.4777 27.8751 25.4909C28.1588 25.5008 28.3523 25.7153 28.3457 25.9761C28.339 26.2237 28.1521 26.4217 27.8818 26.4382C27.7016 26.4514 27.5181 26.4382 27.3379 26.4382L27.3346 26.4415Z" fill="#191717" stroke="#191717" stroke-width="0.2" stroke-miterlimit="10"/>
<path d="M10.5062 19.3676C11.2804 19.4105 11.9712 19.8165 12.3883 20.6417C12.5485 20.9586 12.4751 21.2326 12.2114 21.3646C11.9478 21.5 11.6942 21.391 11.524 21.0742C11.1803 20.4338 10.5363 20.1697 9.9056 20.4074C9.26824 20.6483 8.97125 21.2854 9.16479 22.0017C9.25823 22.3483 9.15144 22.5926 8.86113 22.6784C8.57748 22.7642 8.34724 22.6157 8.23044 22.2757C7.74658 20.8563 8.83776 19.3643 10.5062 19.3643V19.3676Z" fill="#191717" stroke="#191717" stroke-width="0.2" stroke-miterlimit="10"/>
<path d="M8.13674 26.0916C9.02104 26.1081 9.78521 26.7815 9.902 27.6464C9.94205 27.9501 9.79522 28.191 9.5316 28.2439C9.24796 28.3033 9.01771 28.1382 8.94429 27.8246C8.82416 27.3064 8.47712 27.0159 8.02663 27.0555C7.56946 27.0984 7.27581 27.4384 7.24912 27.9633C7.23243 28.2769 7.05223 28.4749 6.78193 28.4848C6.50497 28.4914 6.29808 28.2802 6.27806 27.96C6.21799 26.9565 7.09562 26.0718 8.13341 26.0916H8.13674Z" fill="#191717" stroke="#191717" stroke-width="0.2" stroke-miterlimit="10"/>
<path d="M17.4637 26.8706C17.4103 27.0719 17.377 27.2799 17.3035 27.4713C17.1934 27.7618 16.9331 27.884 16.6795 27.7948C16.4059 27.6991 16.2991 27.4482 16.3992 27.138C16.5561 26.6461 16.2657 26.2335 15.8019 26.3259C15.6517 26.3556 15.4982 26.4778 15.3948 26.5966C15.1612 26.8673 14.9076 26.9498 14.6707 26.7848C14.4304 26.6197 14.4004 26.3424 14.5939 26.042C14.9543 25.4809 15.6651 25.2168 16.3091 25.3984C16.9765 25.5898 17.4304 26.1774 17.4671 26.8706H17.4637Z" fill="#191717" stroke="#191717" stroke-width="0.2" stroke-miterlimit="10"/>
</svg>
