<svg width="175" height="39" viewBox="0 0 175 39" fill="none" xmlns="http://www.w3.org/2000/svg">
<path d="M174.844 33.1097V38.6275H83.6067C82.9409 38.6275 82.3072 38.3907 81.8079 37.9618L45.1928 6.41647L8.37923 38.6275H0L43.362 0.680952C44.3926 -0.221624 45.9353 -0.228025 46.9787 0.668149L64.4925 15.7559V6.96057C64.4925 6.16682 65.1391 5.52029 65.9328 5.52029H74.088C74.8818 5.52029 75.5283 6.16682 75.5283 6.96057V25.2617L84.6373 33.1097H174.85H174.844Z" fill="#FFD448"/>
<path d="M53.4503 38.6275H47.9325V33.1097H53.4503V38.6275ZM42.4146 38.6275H36.8967V33.1097H42.4146V38.6275ZM53.4503 27.5918H47.9325V22.0739H53.4503V27.5918ZM42.4146 22.0739H36.8967V27.5918H42.4146V22.0739Z" fill="#4F4C4C"/>
</svg>
