<svg width="20" height="20" viewBox="0 0 20 20" fill="none" xmlns="http://www.w3.org/2000/svg">
<path d="M10 0.399902C4.69842 0.399902 0.400024 4.6983 0.400024 9.9999C0.400024 15.3015 4.69842 19.5999 10 19.5999C15.3016 19.5999 19.6 15.3015 19.6 9.9999C19.6 4.6983 15.3016 0.399902 10 0.399902ZM6.39682 4.7223C7.07043 4.7223 7.51922 5.1711 7.51922 5.7695C7.51922 6.3679 7.07042 6.8167 6.32242 6.8167C5.64882 6.8175 5.20002 6.3679 5.20002 5.7695C5.20002 5.1711 5.64882 4.7223 6.39682 4.7223ZM7.60002 13.9999H5.20002V7.5999H7.60002V13.9999ZM15.6 13.9999H13.3408V10.5023C13.3408 9.5351 12.7384 9.3119 12.5128 9.3119C12.2872 9.3119 11.5336 9.4607 11.5336 10.5023C11.5336 10.6511 11.5336 13.9999 11.5336 13.9999H9.20002V7.5999H11.5344V8.4927C11.8352 7.9719 12.4376 7.5999 13.5672 7.5999C14.6968 7.5999 15.6 8.4927 15.6 10.5023V13.9999Z" fill="#181616"/>
</svg>
