<svg width="33" height="25" viewBox="0 0 33 25" fill="none" xmlns="http://www.w3.org/2000/svg">
<path d="M32.7686 17.5531C32.5926 17.8464 32.3189 17.9777 31.9977 18.0783C25.0338 20.2487 18.0728 22.4247 11.1118 24.6063C10.7738 24.7125 10.4945 24.679 10.1928 24.503C7.20951 22.7879 4.22342 21.0783 1.22896 19.38C0.84906 19.1649 0.681458 18.8967 0.681458 18.4554C0.692631 15.0419 0.687045 11.6285 0.687045 8.21499C0.687045 7.63118 0.815537 7.4552 1.36583 7.28201C8.33802 5.1032 15.3102 2.92998 22.2796 0.742792C22.6623 0.622679 22.9751 0.661786 23.3159 0.85732C26.2713 2.55567 29.2378 4.24006 32.1904 5.94679C32.4167 6.07808 32.5759 6.32948 32.7658 6.52502V17.5531H32.7686ZM11.4023 23.0951C11.5196 23.0616 11.6174 23.0393 11.7152 23.0085C18.1901 20.9862 24.6679 18.9582 31.1457 16.9442C31.3831 16.8716 31.4446 16.7682 31.4418 16.5308C31.4334 13.6592 31.4362 10.7877 31.4362 7.9161C31.4362 7.80996 31.425 7.70101 31.4166 7.57252C31.2937 7.60604 31.2155 7.62559 31.1373 7.64794C24.64 9.67591 18.1455 11.7067 11.6453 13.7318C11.4358 13.7961 11.3828 13.8967 11.3828 14.1062C11.3883 17.0084 11.3884 19.9107 11.3884 22.8158C11.3884 22.8968 11.3967 22.9778 11.4023 23.0951ZM30.4082 6.47753C30.3189 6.41049 30.2853 6.38535 30.2518 6.363C27.7797 4.94957 25.3104 3.53614 22.8327 2.13388C22.7265 2.07242 22.5506 2.06963 22.4277 2.10594C16.07 4.08643 9.71514 6.07529 3.36027 8.06415C3.26809 8.09208 3.1815 8.13119 3.06418 8.17588C3.13401 8.22616 3.16754 8.2513 3.20106 8.27086C5.67317 9.68429 8.14248 11.0977 10.623 12.5C10.7431 12.567 10.9442 12.5586 11.0839 12.5139C16.5477 10.8156 22.0059 9.10607 27.4668 7.39933C28.4278 7.09765 29.3887 6.79597 30.411 6.47753H30.4082ZM2.03902 9.14517C2.03064 9.25412 2.02506 9.3016 2.02506 9.35188C2.02506 12.2542 2.02506 15.1565 2.01947 18.0587C2.01947 18.2515 2.10327 18.3353 2.24852 18.4191C4.75974 19.8493 7.26817 21.2823 9.77659 22.7152C9.84922 22.7571 9.93022 22.7879 10.0308 22.8326C10.0392 22.7348 10.0448 22.6817 10.0448 22.6314C10.0448 19.7403 10.0448 16.8464 10.0503 13.9553C10.0503 13.7514 9.95816 13.6648 9.80173 13.5754C7.7151 12.391 5.63406 11.1983 3.55022 10.0083C3.06139 9.72898 2.57535 9.45244 2.03902 9.14517Z" fill="#191717"/>
<path d="M17.3885 8.51948C17.3745 9.19267 16.8438 9.47759 16.3606 9.20943C15.8969 8.95244 15.4471 8.66752 14.9918 8.39378C14.3857 8.03064 13.7683 7.67868 13.1761 7.2904C12.9974 7.17308 12.8186 6.98034 12.7516 6.78481C12.6007 6.33229 13.0784 5.89094 13.5532 6.01943C13.6706 6.05016 13.7851 6.11161 13.8912 6.17586C14.9024 6.77922 15.9108 7.38538 16.9192 7.99153C17.1818 8.14796 17.3941 8.33512 17.3857 8.51948H17.3885Z" fill="#191717"/>
<path d="M20.682 7.98311C20.6065 7.95518 20.4613 7.92166 20.3384 7.85183C19.2713 7.22053 18.2099 6.58085 17.1456 5.94397C16.8886 5.79034 16.707 5.57525 16.7406 5.2596C16.7685 4.97747 16.9277 4.75121 17.207 4.70093C17.3858 4.66741 17.6149 4.68697 17.7685 4.77635C18.8691 5.41324 19.9557 6.06967 21.0423 6.7317C21.3608 6.92444 21.4641 7.22332 21.3608 7.53339C21.263 7.82389 21.0535 7.96635 20.682 7.98591V7.98311Z" fill="#191717"/>
<path d="M21.5032 3.32666C21.559 3.34901 21.7043 3.38253 21.8244 3.45515C22.8914 4.08924 23.9557 4.72333 25.0144 5.3686C25.4083 5.60603 25.5144 6.01665 25.2993 6.35465C25.1233 6.62839 24.7434 6.74571 24.4445 6.56973C23.3132 5.90492 22.1875 5.22893 21.0674 4.54456C20.7713 4.36299 20.6875 4.07807 20.7825 3.79036C20.8774 3.49985 21.1121 3.32666 21.5032 3.32945V3.32666Z" fill="#191717"/>
<path d="M9.48043 7.3351C9.54747 7.36303 9.69831 7.40214 9.8296 7.48035C10.8771 8.10327 11.9218 8.72898 12.9637 9.36306C13.0838 9.43569 13.1984 9.54184 13.2794 9.65637C13.4386 9.89101 13.3939 10.2346 13.2068 10.4413C13.0028 10.6648 12.6872 10.7374 12.4079 10.5726C11.2766 9.90497 10.1508 9.23178 9.0307 8.54462C8.7374 8.36305 8.65639 8.07533 8.75416 7.78762C8.85193 7.49711 9.08657 7.32951 9.48043 7.3351Z" fill="#191717"/>
</svg>
