<svg width="32" height="32" viewBox="0 0 32 32" fill="none" xmlns="http://www.w3.org/2000/svg">
<path d="M9.25519 23.4489C8.85872 23.0526 8.46621 22.6602 8.04595 22.244C8.04595 22.244 7.98251 22.2837 7.93097 22.3391C7.28471 22.9891 6.6345 23.6352 5.99618 24.2971C4.8583 25.4742 3.00676 25.494 1.84906 24.3367C0.703249 23.1873 0.719106 21.3443 1.88474 20.2147C5.44111 16.7547 8.99352 13.2986 12.5459 9.83849C15.234 7.22263 17.938 4.62658 20.5904 1.97504C21.982 0.583881 24.0595 0.746381 25.126 2.20096C25.1379 2.21681 25.1538 2.22474 25.1934 2.25645C25.8873 1.44791 26.7278 0.928698 27.8419 1.00797C28.5516 1.05949 29.1661 1.33693 29.6696 1.84425C30.2683 2.45065 30.5538 3.18389 30.5102 4.03603C30.4705 4.8842 30.074 5.57384 29.4357 6.14853C29.5348 6.21195 29.6102 6.25951 29.6815 6.30707C31.1604 7.27811 31.4419 9.26379 30.2881 10.6034C30.1811 10.7263 30.0701 10.8412 29.9551 10.9522C23.7027 17.2025 17.4543 23.4568 11.2019 29.7072C10.968 29.941 10.7499 30.1986 10.4882 30.4008C9.2433 31.3559 7.50674 31.1459 6.50366 29.937C5.51644 28.748 5.65918 27.0279 6.78913 25.9498C7.64947 25.1294 8.45828 24.2614 9.25519 23.4529V23.4489ZM6.83274 22.1251C7.12613 21.812 7.38383 21.5544 7.60982 21.2769C7.70101 21.166 7.77238 21.0035 7.77238 20.8608C7.78824 20.0205 8.09353 19.315 8.6922 18.7285C9.14815 18.2846 9.60409 17.8446 10.0442 17.3888C10.1314 17.3016 10.1869 17.1471 10.1909 17.0242C10.2028 15.9342 10.1988 14.8483 10.1948 13.7583C10.1948 13.687 10.179 13.6156 10.171 13.5443C10.1393 13.5245 10.1076 13.5047 10.0719 13.4848C9.78647 13.798 9.5129 14.119 9.21951 14.4242C8.91422 14.7452 8.46621 14.9949 8.30762 15.3714C8.14507 15.7599 8.26004 16.2632 8.26004 16.715C8.26004 17.1153 8.26004 17.5117 8.26004 17.9041H7.27679V16.3227C6.21424 17.3571 5.1953 18.3519 4.14861 19.3745C5.68693 19.648 6.55917 20.5358 6.82481 22.1251H6.83274ZM10.6785 22.7712C11.745 22.7712 12.6173 21.8992 12.6133 20.8291C12.6133 19.7748 11.749 18.9068 10.6944 18.8989C9.62391 18.891 8.7477 19.7589 8.74374 20.8251C8.73977 21.8952 9.60806 22.7672 10.6746 22.7712H10.6785ZM3.89487 20.3535C2.82835 20.3574 1.96403 21.2373 1.97196 22.3074C1.97989 23.3577 2.84818 24.2218 3.9028 24.2257C4.96931 24.2257 5.84155 23.3538 5.84155 22.2876C5.84155 21.2215 4.96534 20.3535 3.89487 20.3574V20.3535ZM8.74771 26.1599C7.68119 26.1599 6.80895 27.0318 6.81291 28.102C6.81291 29.1562 7.67723 30.0242 8.73185 30.0322C9.80233 30.0401 10.6785 29.1721 10.6825 28.1059C10.6825 27.0358 9.81819 26.1639 8.74771 26.1639V26.1599ZM23.7463 5.06256C23.0921 5.72048 22.4974 6.30707 21.9186 6.90951C21.8472 6.98482 21.8155 7.12354 21.8155 7.23055C21.8076 8.86348 21.8115 10.4925 21.8155 12.1254C21.8155 12.1967 21.8313 12.2681 21.8432 12.3949C22.438 11.7964 22.9851 11.2336 23.5441 10.6827C23.6908 10.5361 23.7542 10.3934 23.7542 10.1833C23.7463 8.6019 23.7503 7.02049 23.7503 5.43908V5.06256H23.7463ZM20.8441 7.97568C20.2177 8.6019 19.6388 9.1647 19.0838 9.74733C18.9886 9.84641 18.9173 10.0208 18.9173 10.1635C18.9054 11.7766 18.9093 13.3858 18.9093 14.9989C18.9093 15.0821 18.9212 15.1653 18.9292 15.2961C19.5318 14.6937 20.0869 14.1269 20.6578 13.572C20.8005 13.4333 20.8481 13.2906 20.8481 13.0964C20.8402 11.6062 20.8481 10.1159 20.8481 8.62568V7.97964L20.8441 7.97568ZM17.9419 10.8809C17.3155 11.5031 16.7406 12.0659 16.1856 12.6446C16.0864 12.7476 16.0151 12.9181 16.0151 13.0568C16.0032 14.6699 16.0071 16.2791 16.0071 17.8922C16.0071 17.9754 16.019 18.0586 16.027 18.1934C16.6613 17.5592 17.26 16.9647 17.8507 16.3583C17.9142 16.2909 17.938 16.1602 17.938 16.0611C17.9459 15.415 17.938 14.773 17.938 14.1269C17.938 13.0726 17.938 12.0144 17.938 10.8769L17.9419 10.8809ZM24.7137 9.49763C25.3639 8.84763 25.9586 8.26104 26.5415 7.66256C26.6128 7.59122 26.6445 7.44854 26.6445 7.34153C26.6525 5.73238 26.6485 4.11926 26.6445 2.51011C26.6445 2.43876 26.6287 2.36346 26.6168 2.24059C26.4503 2.38724 26.3194 2.49029 26.1965 2.60919C25.7604 3.04121 25.3203 3.46926 24.9001 3.91712C24.797 4.0281 24.7177 4.20646 24.7177 4.35707C24.7058 5.95829 24.7097 7.55952 24.7097 9.15678C24.7097 9.24397 24.7097 9.33117 24.7097 9.49367L24.7137 9.49763ZM13.6521 20.5675C14.0724 20.1474 14.5164 19.7114 14.9486 19.2596C15.012 19.1922 15.0318 19.0614 15.0318 18.9583C15.0358 17.3254 15.0318 15.6925 15.0318 14.0595C15.0318 13.9882 15.016 13.9169 15.0041 13.8098C14.3816 14.4321 13.7869 15.0187 13.2001 15.6172C13.1327 15.6845 13.101 15.8114 13.097 15.9105C13.0891 16.9568 13.0931 18.0071 13.097 19.0535C13.097 19.1327 13.1089 19.216 13.1367 19.2873C13.2992 19.7074 13.4697 20.1196 13.6481 20.5635L13.6521 20.5675ZM11.6578 27.8919C12.2684 27.2776 12.8235 26.7148 13.3904 26.1599C13.5292 26.0251 13.5926 25.8864 13.5887 25.6882C13.5807 24.5824 13.5847 23.4766 13.5847 22.3669V22.0221C12.9345 22.6007 12.4785 23.3221 11.6578 23.5599V27.8919ZM28.1036 7.49214C27.4533 8.13818 26.8586 8.72476 26.2798 9.32324C26.2084 9.39458 26.1767 9.53727 26.1727 9.64428C26.1648 10.7937 26.1688 11.9391 26.1727 13.0885C26.1727 13.1598 26.1886 13.2351 26.2005 13.3699C26.589 12.9736 26.8983 12.5772 27.2829 12.28C27.9569 11.7608 28.1948 11.1266 28.1234 10.2784C28.0481 9.38269 28.1075 8.47507 28.1075 7.49214H28.1036ZM25.1974 10.3973C24.571 11.0236 23.9961 11.5864 23.4371 12.165C23.3419 12.2641 23.2705 12.4385 23.2705 12.5812C23.2586 13.7108 23.2626 14.8364 23.2626 15.966C23.2626 16.0492 23.2745 16.1324 23.2824 16.2315C23.33 16.1998 23.3498 16.1919 23.3617 16.176C23.7265 15.8153 24.0595 15.4111 24.46 15.098C25.0626 14.6263 25.2688 14.0635 25.2133 13.3025C25.1459 12.3632 25.1974 11.4159 25.1974 10.3934V10.3973ZM22.2952 13.3025C21.645 13.9486 21.0503 14.5352 20.4675 15.1336C20.3961 15.205 20.3644 15.3477 20.3644 15.4547C20.3565 16.6041 20.3604 17.7495 20.3644 18.8989C20.3644 18.9702 20.3803 19.0455 20.3921 19.1803C20.7212 18.8394 21.0106 18.5422 21.2961 18.2489C21.6252 17.912 22.0851 17.6266 22.2516 17.2224C22.4181 16.8181 22.2952 16.2909 22.2952 15.8193C22.2952 15.0068 22.2952 14.1943 22.2952 13.3065V13.3025ZM17.4582 22.0815C18.1085 21.4315 18.7032 20.8449 19.286 20.2465C19.3573 20.1751 19.3891 20.0324 19.3891 19.9254C19.397 18.776 19.393 17.6306 19.3891 16.4812C19.3891 16.4099 19.3732 16.3345 19.3613 16.1998C19.0322 16.5406 18.7428 16.8339 18.4574 17.1312C18.1283 17.4681 17.6723 17.7535 17.5018 18.1577C17.3353 18.5501 17.4582 19.0693 17.4582 19.533C17.4582 20.3574 17.4582 21.1779 17.4582 22.0776V22.0815ZM14.5521 24.9946C15.2063 24.3367 15.801 23.7501 16.3838 23.1477C16.4552 23.0763 16.4829 22.9337 16.4869 22.8266C16.4948 21.6772 16.4908 20.5318 16.4869 19.3824C16.4869 19.3111 16.471 19.2397 16.4591 19.1288C15.8327 19.7589 15.238 20.3455 14.6591 20.948C14.5878 21.0193 14.56 21.162 14.56 21.269C14.5521 22.0023 14.556 22.7395 14.556 23.4727C14.556 23.9523 14.556 24.4318 14.556 24.9946H14.5521ZM13.101 10.651C12.4428 11.2891 11.8442 11.8678 11.2534 12.4583C11.19 12.5217 11.1702 12.6565 11.1702 12.7595C11.1662 13.8376 11.1662 14.9156 11.1702 15.9977C11.1702 16.069 11.186 16.1403 11.1979 16.2513C11.8243 15.6251 12.4151 15.0345 13.0019 14.44C13.0534 14.3885 13.101 14.3053 13.101 14.2339C13.1089 13.0647 13.105 11.8995 13.105 10.651H13.101ZM16.0032 7.81714C15.349 8.45525 14.7464 9.03391 14.1596 9.62446C14.0961 9.68788 14.0724 9.82263 14.0724 9.92172C14.0644 10.9879 14.0684 12.054 14.0724 13.1202C14.0724 13.1836 14.0882 13.2431 14.1041 13.3382C14.7226 12.7199 15.3133 12.1333 15.9001 11.5388C15.9556 11.4833 16.0032 11.3842 16.0032 11.305C16.0111 10.1714 16.0071 9.03391 16.0071 7.81714H16.0032ZM16.9745 10.3894C16.9983 10.4013 17.0221 10.4132 17.0459 10.4251C17.3631 10.1001 17.6763 9.77507 17.9935 9.45404C18.2908 9.15281 18.7032 8.89915 18.8538 8.53848C19.0084 8.16592 18.9054 7.69031 18.9093 7.2583C18.9093 6.52506 18.9093 5.79579 18.9093 5.03878C18.8538 5.06652 18.8221 5.07445 18.8062 5.0903C18.2274 5.65311 17.6525 6.21592 17.0776 6.78269C17.0261 6.83421 16.9785 6.91744 16.9785 6.98482C16.9706 8.11836 16.9745 9.25586 16.9745 10.3894ZM19.8767 7.56348C20.5388 6.90555 21.1494 6.29915 21.752 5.68481C21.8076 5.62536 21.8115 5.49853 21.8115 5.40341C21.8155 4.43633 21.8115 3.46926 21.8115 2.50615C21.8115 2.4348 21.7957 2.3595 21.7877 2.26438C21.7084 2.3159 21.6529 2.33968 21.6093 2.37932C21.0582 2.90645 20.5032 3.43359 19.96 3.97261C19.8966 4.03603 19.8807 4.17078 19.8807 4.27383C19.8728 4.88817 19.8807 5.5025 19.8807 6.11683V7.56348H19.8767ZM27.6318 6.54884C28.1432 6.04945 28.6547 5.60158 29.0908 5.09426C29.3088 4.8406 29.4674 4.48389 29.5229 4.15097C29.7489 2.73999 28.4644 1.86407 27.6318 1.99486V6.54884ZM22.7908 4.58695C23.3459 4.03207 23.893 3.48907 24.4441 2.93816C24.1349 2.33968 23.4371 1.92748 22.7908 1.99486V4.58695ZM29.0947 7.09579V10.4251C30.3397 9.35099 30.3397 7.76958 29.0947 7.09579ZM9.00938 25.1096C9.58823 25.3553 10.1314 25.5852 10.6627 25.8111V23.7065C10.5318 23.7462 10.405 23.7501 10.3376 23.8135C9.87766 24.2456 9.4336 24.6934 9.00938 25.1096ZM12.1138 18.2647V16.7943C11.7371 17.1708 11.3525 17.5553 10.9878 17.916C11.3367 18.023 11.7252 18.1458 12.1138 18.2647Z" fill="#191717" stroke="#191717" stroke-width="0.1" stroke-miterlimit="10"/>
</svg>
