<svg width="20" height="20" viewBox="0 0 20 20" fill="none" xmlns="http://www.w3.org/2000/svg">
<circle cx="10" cy="10" r="10" fill="#181616"/>
<path d="M14.2809 13.9798L10.9263 9.22285L10.547 8.68485L8.14742 5.282L7.94861 5H5L5.71914 6.02007L8.90971 10.5451L9.28895 11.0825L11.8525 14.7182L12.0514 15H15L14.2809 13.9799V13.9798ZM12.4018 14.3489L9.73849 10.5717L9.35924 10.0341L6.26871 5.65104H7.5981L10.0974 9.19562L10.4767 9.7333L13.7312 14.3488H12.4018V14.3489Z" fill="white"/>
<path d="M9.24689 10L9.61538 10.5414L9.17851 11.0556L5.82658 15H5L8.81001 10.5145L9.24689 10Z" fill="white"/>
<path d="M14.6154 5L10.8412 9.11765L10.3849 9.61538L10 9.0911L10.4563 8.59305L13.0129 5.80247L13.752 5H14.6154Z" fill="white"/>
</svg>
