<svg width="34" height="21" viewBox="0 0 34 21" fill="none" xmlns="http://www.w3.org/2000/svg">
<mask id="path-1-outside-1_241_35" maskUnits="userSpaceOnUse" x="-0.902374" y="-0.790771" width="35" height="22" fill="black">
<rect fill="white" x="-0.902374" y="-0.790771" width="35" height="22"/>
<path d="M0.0994557 15.4858C0.147025 15.2736 0.190936 15.0614 0.243995 14.851C0.736158 12.9482 2.46879 11.5833 4.44111 11.5522C5.09244 11.5412 5.74378 11.5522 6.47014 11.5522C6.34572 11.4424 6.27803 11.3802 6.20667 11.3198C4.76678 10.1178 4.2307 8.17107 4.85825 6.42745C5.49496 4.66006 7.14526 3.49094 9.02792 3.48911C12.2736 3.48545 15.5175 3.48911 18.7632 3.48911C18.8822 3.48911 19.0011 3.48911 19.1584 3.48911C18.9956 2.81399 18.8401 2.16997 18.6827 1.52595C18.4723 0.667865 18.82 0.215952 19.6963 0.215952C20.1666 0.215952 20.6368 0.232418 21.1051 0.210463C21.5699 0.190338 21.8406 0.417208 22.0053 0.82155C22.3291 1.62109 22.6621 2.41513 22.9713 3.22016C23.0518 3.42873 23.1506 3.4946 23.372 3.4946C24.3545 3.49643 25.3498 3.42508 26.3158 3.55864C28.1619 3.81295 29.4079 4.9034 29.9238 6.69275C30.4434 8.49857 29.9238 10.0501 28.5224 11.3034C28.4565 11.3619 28.3888 11.4168 28.3229 11.4735C28.3156 11.4808 28.3101 11.49 28.2644 11.5522C28.6193 11.5522 28.9377 11.5467 29.256 11.5522C30.8203 11.5869 32.0571 12.2493 32.9299 13.5446C34.6314 16.0658 33.2372 19.5841 30.2715 20.2666C29.9129 20.3489 29.5378 20.3928 29.1682 20.3928C20.9844 20.402 12.8006 20.402 4.61675 20.402C2.35353 20.402 0.533071 18.8688 0.156173 16.6549C0.145195 16.5909 0.117751 16.5305 0.0976257 16.4702C0.0976257 16.1427 0.0976257 15.8152 0.0976257 15.4858H0.0994557ZM11.6772 11.5467C12.0047 11.5467 12.3322 11.5467 12.6579 11.5467C16.9721 11.5467 21.2881 11.5467 25.6023 11.5467C26.5958 11.5467 27.463 11.2228 28.1912 10.5422C28.2735 10.4654 28.3412 10.3757 28.4583 10.2422H28.0284C25.5712 10.2422 23.1122 10.2422 20.6551 10.2422C20.5563 10.2422 20.43 10.2769 20.366 10.2294C20.2324 10.1306 20.0476 9.98786 20.044 9.85979C20.0403 9.72989 20.216 9.57438 20.3477 9.47375C20.4172 9.42069 20.5581 9.45728 20.6679 9.45728C23.3336 9.45728 25.9993 9.45362 28.6632 9.46277C28.9084 9.46277 29.0255 9.39508 29.106 9.15357C29.3896 8.31378 29.3896 7.48862 29.0968 6.65067C29.0182 6.42379 28.9047 6.36159 28.6742 6.36342C26.7842 6.37257 24.8943 6.36891 23.0043 6.36891C22.8945 6.36891 22.7536 6.4055 22.6841 6.35061C22.5524 6.24999 22.3731 6.09264 22.3767 5.96274C22.3785 5.8365 22.5707 5.69378 22.7042 5.59499C22.7683 5.54742 22.8945 5.58218 22.9933 5.58218C24.6747 5.58218 26.3579 5.58218 28.0393 5.58218C28.1546 5.58218 28.2699 5.58218 28.4437 5.58218C28.354 5.46874 28.3101 5.39739 28.2516 5.34067C27.5746 4.68018 26.7641 4.30877 25.8182 4.28499C24.8906 4.2612 23.9612 4.26669 23.0335 4.28316C22.6859 4.28865 22.4956 4.16606 22.3712 3.83857C22.0419 2.97316 21.6796 2.11874 21.3412 1.257C21.2661 1.06489 21.1637 0.991704 20.9551 0.999022C20.5197 1.01549 20.0806 1.00268 19.6451 1.00634C19.5646 1.00634 19.4859 1.03012 19.3798 1.04842C19.5902 1.91931 19.7915 2.75544 19.9946 3.58974C20.1208 4.10935 19.9909 4.27767 19.4567 4.27767C16.9666 4.27767 14.4747 4.27767 11.9846 4.27767C11.873 4.27767 11.7632 4.27767 11.7156 4.27767C12.0998 4.75154 12.5444 5.18516 12.8445 5.70476C13.1445 6.21888 13.2982 6.81899 13.5397 7.44106C13.5818 7.44106 13.7099 7.44106 13.8398 7.44106C16.4836 7.44106 19.1273 7.44106 21.7711 7.44106C22.2322 7.44106 22.4371 7.56547 22.4353 7.83991C22.4353 8.11618 22.2413 8.22779 21.7656 8.22779C19.0999 8.22779 16.4342 8.22962 13.7703 8.22413C13.5489 8.22413 13.4299 8.26255 13.4062 8.51321C13.3421 9.21212 13.0915 9.85248 12.6762 10.4105C12.3798 10.8094 12.0212 11.1606 11.6772 11.5503V11.5467ZM15.1278 19.6116H15.5084C20.0531 19.6116 24.5997 19.6116 29.1444 19.6098C29.3951 19.6098 29.6476 19.5915 29.8927 19.5457C30.7197 19.392 31.415 19.0005 32.0206 18.3071H31.6052C29.1353 18.3071 26.6671 18.3071 24.1972 18.3071C24.0984 18.3071 23.9703 18.3418 23.9081 18.2924C23.7764 18.19 23.5934 18.0418 23.5934 17.9137C23.5934 17.7856 23.7745 17.6338 23.9081 17.5368C23.9813 17.4837 24.1203 17.5222 24.2283 17.5222C26.894 17.5222 29.5597 17.5185 32.2273 17.5277C32.4597 17.5277 32.5713 17.4618 32.6499 17.2404C32.9445 16.4043 32.9445 15.5755 32.6609 14.7375C32.5822 14.5015 32.467 14.4265 32.2163 14.4265C30.3263 14.4375 28.4364 14.4338 26.5445 14.432C26.4256 14.432 26.2719 14.4612 26.1951 14.4009C26.0743 14.3057 25.9261 14.1411 25.9335 14.0148C25.9408 13.8904 26.1109 13.7514 26.2408 13.6654C26.3177 13.6141 26.4531 13.6489 26.5628 13.6489C28.2461 13.6489 29.9275 13.6489 31.6107 13.6489C31.7242 13.6489 31.8394 13.6489 32.0096 13.6489C31.9254 13.5446 31.8907 13.4934 31.8467 13.4495C31.1003 12.6975 30.1946 12.3407 29.1371 12.3426C24.5924 12.3462 20.0458 12.3462 15.5011 12.3462C15.4078 12.3462 15.3163 12.3462 15.1479 12.3462C15.2815 12.4597 15.3529 12.52 15.4242 12.5804C16.2274 13.261 16.7452 14.1209 16.9282 15.1528C16.983 15.4602 17.0892 15.5114 17.3618 15.5096C20.0165 15.5023 22.6713 15.5041 25.3279 15.506C25.4376 15.506 25.5767 15.4712 25.648 15.5242C25.7834 15.623 25.9481 15.7639 25.9737 15.9103C26.0103 16.1207 25.8475 16.2707 25.6151 16.2872C25.5072 16.2945 25.3974 16.2927 25.2876 16.2927C22.6658 16.2927 20.0421 16.2927 17.4203 16.2927H17.016C16.8678 17.6539 16.2732 18.7407 15.1297 19.6189L15.1278 19.6116ZM0.888015 15.9542C0.878867 17.921 2.50538 19.5988 4.43013 19.6079C6.49209 19.6171 8.15703 17.9924 8.15703 15.9707C8.15703 13.9837 6.52868 12.3554 4.53076 12.3389C2.54564 12.3224 0.897163 13.9581 0.888015 15.9542ZM12.6341 7.90395C12.6981 6.15484 11.2491 4.2795 8.95657 4.2795C6.9806 4.2795 5.36689 5.96639 5.39799 7.96615C5.42909 9.94212 7.08488 11.5851 9.00231 11.5449C11.0661 11.5009 12.6615 9.90004 12.6341 7.90395ZM16.2018 16.0128C16.2146 14.002 14.5936 12.3535 12.592 12.3407C10.6288 12.3279 8.96389 13.9618 8.95108 15.9158C8.93644 17.9485 10.5593 19.5969 12.5755 19.6043C14.5424 19.6098 16.189 17.9796 16.2 16.0146L16.2018 16.0128ZM8.55406 17.9997C8.12227 18.5156 7.66304 19.0645 7.2221 19.5933H9.88235C9.4341 19.0554 8.97486 18.5047 8.55406 17.9997ZM8.5504 13.9508C8.96938 13.4476 9.42861 12.8951 9.86771 12.3682H7.2404C7.67951 12.8988 8.13325 13.4476 8.5504 13.9508Z"/>
</mask>
<path d="M0.0994557 15.4858C0.147025 15.2736 0.190936 15.0614 0.243995 14.851C0.736158 12.9482 2.46879 11.5833 4.44111 11.5522C5.09244 11.5412 5.74378 11.5522 6.47014 11.5522C6.34572 11.4424 6.27803 11.3802 6.20667 11.3198C4.76678 10.1178 4.2307 8.17107 4.85825 6.42745C5.49496 4.66006 7.14526 3.49094 9.02792 3.48911C12.2736 3.48545 15.5175 3.48911 18.7632 3.48911C18.8822 3.48911 19.0011 3.48911 19.1584 3.48911C18.9956 2.81399 18.8401 2.16997 18.6827 1.52595C18.4723 0.667865 18.82 0.215952 19.6963 0.215952C20.1666 0.215952 20.6368 0.232418 21.1051 0.210463C21.5699 0.190338 21.8406 0.417208 22.0053 0.82155C22.3291 1.62109 22.6621 2.41513 22.9713 3.22016C23.0518 3.42873 23.1506 3.4946 23.372 3.4946C24.3545 3.49643 25.3498 3.42508 26.3158 3.55864C28.1619 3.81295 29.4079 4.9034 29.9238 6.69275C30.4434 8.49857 29.9238 10.0501 28.5224 11.3034C28.4565 11.3619 28.3888 11.4168 28.3229 11.4735C28.3156 11.4808 28.3101 11.49 28.2644 11.5522C28.6193 11.5522 28.9377 11.5467 29.256 11.5522C30.8203 11.5869 32.0571 12.2493 32.9299 13.5446C34.6314 16.0658 33.2372 19.5841 30.2715 20.2666C29.9129 20.3489 29.5378 20.3928 29.1682 20.3928C20.9844 20.402 12.8006 20.402 4.61675 20.402C2.35353 20.402 0.533071 18.8688 0.156173 16.6549C0.145195 16.5909 0.117751 16.5305 0.0976257 16.4702C0.0976257 16.1427 0.0976257 15.8152 0.0976257 15.4858H0.0994557ZM11.6772 11.5467C12.0047 11.5467 12.3322 11.5467 12.6579 11.5467C16.9721 11.5467 21.2881 11.5467 25.6023 11.5467C26.5958 11.5467 27.463 11.2228 28.1912 10.5422C28.2735 10.4654 28.3412 10.3757 28.4583 10.2422H28.0284C25.5712 10.2422 23.1122 10.2422 20.6551 10.2422C20.5563 10.2422 20.43 10.2769 20.366 10.2294C20.2324 10.1306 20.0476 9.98786 20.044 9.85979C20.0403 9.72989 20.216 9.57438 20.3477 9.47375C20.4172 9.42069 20.5581 9.45728 20.6679 9.45728C23.3336 9.45728 25.9993 9.45362 28.6632 9.46277C28.9084 9.46277 29.0255 9.39508 29.106 9.15357C29.3896 8.31378 29.3896 7.48862 29.0968 6.65067C29.0182 6.42379 28.9047 6.36159 28.6742 6.36342C26.7842 6.37257 24.8943 6.36891 23.0043 6.36891C22.8945 6.36891 22.7536 6.4055 22.6841 6.35061C22.5524 6.24999 22.3731 6.09264 22.3767 5.96274C22.3785 5.8365 22.5707 5.69378 22.7042 5.59499C22.7683 5.54742 22.8945 5.58218 22.9933 5.58218C24.6747 5.58218 26.3579 5.58218 28.0393 5.58218C28.1546 5.58218 28.2699 5.58218 28.4437 5.58218C28.354 5.46874 28.3101 5.39739 28.2516 5.34067C27.5746 4.68018 26.7641 4.30877 25.8182 4.28499C24.8906 4.2612 23.9612 4.26669 23.0335 4.28316C22.6859 4.28865 22.4956 4.16606 22.3712 3.83857C22.0419 2.97316 21.6796 2.11874 21.3412 1.257C21.2661 1.06489 21.1637 0.991704 20.9551 0.999022C20.5197 1.01549 20.0806 1.00268 19.6451 1.00634C19.5646 1.00634 19.4859 1.03012 19.3798 1.04842C19.5902 1.91931 19.7915 2.75544 19.9946 3.58974C20.1208 4.10935 19.9909 4.27767 19.4567 4.27767C16.9666 4.27767 14.4747 4.27767 11.9846 4.27767C11.873 4.27767 11.7632 4.27767 11.7156 4.27767C12.0998 4.75154 12.5444 5.18516 12.8445 5.70476C13.1445 6.21888 13.2982 6.81899 13.5397 7.44106C13.5818 7.44106 13.7099 7.44106 13.8398 7.44106C16.4836 7.44106 19.1273 7.44106 21.7711 7.44106C22.2322 7.44106 22.4371 7.56547 22.4353 7.83991C22.4353 8.11618 22.2413 8.22779 21.7656 8.22779C19.0999 8.22779 16.4342 8.22962 13.7703 8.22413C13.5489 8.22413 13.4299 8.26255 13.4062 8.51321C13.3421 9.21212 13.0915 9.85248 12.6762 10.4105C12.3798 10.8094 12.0212 11.1606 11.6772 11.5503V11.5467ZM15.1278 19.6116H15.5084C20.0531 19.6116 24.5997 19.6116 29.1444 19.6098C29.3951 19.6098 29.6476 19.5915 29.8927 19.5457C30.7197 19.392 31.415 19.0005 32.0206 18.3071H31.6052C29.1353 18.3071 26.6671 18.3071 24.1972 18.3071C24.0984 18.3071 23.9703 18.3418 23.9081 18.2924C23.7764 18.19 23.5934 18.0418 23.5934 17.9137C23.5934 17.7856 23.7745 17.6338 23.9081 17.5368C23.9813 17.4837 24.1203 17.5222 24.2283 17.5222C26.894 17.5222 29.5597 17.5185 32.2273 17.5277C32.4597 17.5277 32.5713 17.4618 32.6499 17.2404C32.9445 16.4043 32.9445 15.5755 32.6609 14.7375C32.5822 14.5015 32.467 14.4265 32.2163 14.4265C30.3263 14.4375 28.4364 14.4338 26.5445 14.432C26.4256 14.432 26.2719 14.4612 26.1951 14.4009C26.0743 14.3057 25.9261 14.1411 25.9335 14.0148C25.9408 13.8904 26.1109 13.7514 26.2408 13.6654C26.3177 13.6141 26.4531 13.6489 26.5628 13.6489C28.2461 13.6489 29.9275 13.6489 31.6107 13.6489C31.7242 13.6489 31.8394 13.6489 32.0096 13.6489C31.9254 13.5446 31.8907 13.4934 31.8467 13.4495C31.1003 12.6975 30.1946 12.3407 29.1371 12.3426C24.5924 12.3462 20.0458 12.3462 15.5011 12.3462C15.4078 12.3462 15.3163 12.3462 15.1479 12.3462C15.2815 12.4597 15.3529 12.52 15.4242 12.5804C16.2274 13.261 16.7452 14.1209 16.9282 15.1528C16.983 15.4602 17.0892 15.5114 17.3618 15.5096C20.0165 15.5023 22.6713 15.5041 25.3279 15.506C25.4376 15.506 25.5767 15.4712 25.648 15.5242C25.7834 15.623 25.9481 15.7639 25.9737 15.9103C26.0103 16.1207 25.8475 16.2707 25.6151 16.2872C25.5072 16.2945 25.3974 16.2927 25.2876 16.2927C22.6658 16.2927 20.0421 16.2927 17.4203 16.2927H17.016C16.8678 17.6539 16.2732 18.7407 15.1297 19.6189L15.1278 19.6116ZM0.888015 15.9542C0.878867 17.921 2.50538 19.5988 4.43013 19.6079C6.49209 19.6171 8.15703 17.9924 8.15703 15.9707C8.15703 13.9837 6.52868 12.3554 4.53076 12.3389C2.54564 12.3224 0.897163 13.9581 0.888015 15.9542ZM12.6341 7.90395C12.6981 6.15484 11.2491 4.2795 8.95657 4.2795C6.9806 4.2795 5.36689 5.96639 5.39799 7.96615C5.42909 9.94212 7.08488 11.5851 9.00231 11.5449C11.0661 11.5009 12.6615 9.90004 12.6341 7.90395ZM16.2018 16.0128C16.2146 14.002 14.5936 12.3535 12.592 12.3407C10.6288 12.3279 8.96389 13.9618 8.95108 15.9158C8.93644 17.9485 10.5593 19.5969 12.5755 19.6043C14.5424 19.6098 16.189 17.9796 16.2 16.0146L16.2018 16.0128ZM8.55406 17.9997C8.12227 18.5156 7.66304 19.0645 7.2221 19.5933H9.88235C9.4341 19.0554 8.97486 18.5047 8.55406 17.9997ZM8.5504 13.9508C8.96938 13.4476 9.42861 12.8951 9.86771 12.3682H7.2404C7.67951 12.8988 8.13325 13.4476 8.5504 13.9508Z" fill="#191717"/>
<path d="M0.0994557 15.4858C0.147025 15.2736 0.190936 15.0614 0.243995 14.851C0.736158 12.9482 2.46879 11.5833 4.44111 11.5522C5.09244 11.5412 5.74378 11.5522 6.47014 11.5522C6.34572 11.4424 6.27803 11.3802 6.20667 11.3198C4.76678 10.1178 4.2307 8.17107 4.85825 6.42745C5.49496 4.66006 7.14526 3.49094 9.02792 3.48911C12.2736 3.48545 15.5175 3.48911 18.7632 3.48911C18.8822 3.48911 19.0011 3.48911 19.1584 3.48911C18.9956 2.81399 18.8401 2.16997 18.6827 1.52595C18.4723 0.667865 18.82 0.215952 19.6963 0.215952C20.1666 0.215952 20.6368 0.232418 21.1051 0.210463C21.5699 0.190338 21.8406 0.417208 22.0053 0.82155C22.3291 1.62109 22.6621 2.41513 22.9713 3.22016C23.0518 3.42873 23.1506 3.4946 23.372 3.4946C24.3545 3.49643 25.3498 3.42508 26.3158 3.55864C28.1619 3.81295 29.4079 4.9034 29.9238 6.69275C30.4434 8.49857 29.9238 10.0501 28.5224 11.3034C28.4565 11.3619 28.3888 11.4168 28.3229 11.4735C28.3156 11.4808 28.3101 11.49 28.2644 11.5522C28.6193 11.5522 28.9377 11.5467 29.256 11.5522C30.8203 11.5869 32.0571 12.2493 32.9299 13.5446C34.6314 16.0658 33.2372 19.5841 30.2715 20.2666C29.9129 20.3489 29.5378 20.3928 29.1682 20.3928C20.9844 20.402 12.8006 20.402 4.61675 20.402C2.35353 20.402 0.533071 18.8688 0.156173 16.6549C0.145195 16.5909 0.117751 16.5305 0.0976257 16.4702C0.0976257 16.1427 0.0976257 15.8152 0.0976257 15.4858H0.0994557ZM11.6772 11.5467C12.0047 11.5467 12.3322 11.5467 12.6579 11.5467C16.9721 11.5467 21.2881 11.5467 25.6023 11.5467C26.5958 11.5467 27.463 11.2228 28.1912 10.5422C28.2735 10.4654 28.3412 10.3757 28.4583 10.2422H28.0284C25.5712 10.2422 23.1122 10.2422 20.6551 10.2422C20.5563 10.2422 20.43 10.2769 20.366 10.2294C20.2324 10.1306 20.0476 9.98786 20.044 9.85979C20.0403 9.72989 20.216 9.57438 20.3477 9.47375C20.4172 9.42069 20.5581 9.45728 20.6679 9.45728C23.3336 9.45728 25.9993 9.45362 28.6632 9.46277C28.9084 9.46277 29.0255 9.39508 29.106 9.15357C29.3896 8.31378 29.3896 7.48862 29.0968 6.65067C29.0182 6.42379 28.9047 6.36159 28.6742 6.36342C26.7842 6.37257 24.8943 6.36891 23.0043 6.36891C22.8945 6.36891 22.7536 6.4055 22.6841 6.35061C22.5524 6.24999 22.3731 6.09264 22.3767 5.96274C22.3785 5.8365 22.5707 5.69378 22.7042 5.59499C22.7683 5.54742 22.8945 5.58218 22.9933 5.58218C24.6747 5.58218 26.3579 5.58218 28.0393 5.58218C28.1546 5.58218 28.2699 5.58218 28.4437 5.58218C28.354 5.46874 28.3101 5.39739 28.2516 5.34067C27.5746 4.68018 26.7641 4.30877 25.8182 4.28499C24.8906 4.2612 23.9612 4.26669 23.0335 4.28316C22.6859 4.28865 22.4956 4.16606 22.3712 3.83857C22.0419 2.97316 21.6796 2.11874 21.3412 1.257C21.2661 1.06489 21.1637 0.991704 20.9551 0.999022C20.5197 1.01549 20.0806 1.00268 19.6451 1.00634C19.5646 1.00634 19.4859 1.03012 19.3798 1.04842C19.5902 1.91931 19.7915 2.75544 19.9946 3.58974C20.1208 4.10935 19.9909 4.27767 19.4567 4.27767C16.9666 4.27767 14.4747 4.27767 11.9846 4.27767C11.873 4.27767 11.7632 4.27767 11.7156 4.27767C12.0998 4.75154 12.5444 5.18516 12.8445 5.70476C13.1445 6.21888 13.2982 6.81899 13.5397 7.44106C13.5818 7.44106 13.7099 7.44106 13.8398 7.44106C16.4836 7.44106 19.1273 7.44106 21.7711 7.44106C22.2322 7.44106 22.4371 7.56547 22.4353 7.83991C22.4353 8.11618 22.2413 8.22779 21.7656 8.22779C19.0999 8.22779 16.4342 8.22962 13.7703 8.22413C13.5489 8.22413 13.4299 8.26255 13.4062 8.51321C13.3421 9.21212 13.0915 9.85248 12.6762 10.4105C12.3798 10.8094 12.0212 11.1606 11.6772 11.5503V11.5467ZM15.1278 19.6116H15.5084C20.0531 19.6116 24.5997 19.6116 29.1444 19.6098C29.3951 19.6098 29.6476 19.5915 29.8927 19.5457C30.7197 19.392 31.415 19.0005 32.0206 18.3071H31.6052C29.1353 18.3071 26.6671 18.3071 24.1972 18.3071C24.0984 18.3071 23.9703 18.3418 23.9081 18.2924C23.7764 18.19 23.5934 18.0418 23.5934 17.9137C23.5934 17.7856 23.7745 17.6338 23.9081 17.5368C23.9813 17.4837 24.1203 17.5222 24.2283 17.5222C26.894 17.5222 29.5597 17.5185 32.2273 17.5277C32.4597 17.5277 32.5713 17.4618 32.6499 17.2404C32.9445 16.4043 32.9445 15.5755 32.6609 14.7375C32.5822 14.5015 32.467 14.4265 32.2163 14.4265C30.3263 14.4375 28.4364 14.4338 26.5445 14.432C26.4256 14.432 26.2719 14.4612 26.1951 14.4009C26.0743 14.3057 25.9261 14.1411 25.9335 14.0148C25.9408 13.8904 26.1109 13.7514 26.2408 13.6654C26.3177 13.6141 26.4531 13.6489 26.5628 13.6489C28.2461 13.6489 29.9275 13.6489 31.6107 13.6489C31.7242 13.6489 31.8394 13.6489 32.0096 13.6489C31.9254 13.5446 31.8907 13.4934 31.8467 13.4495C31.1003 12.6975 30.1946 12.3407 29.1371 12.3426C24.5924 12.3462 20.0458 12.3462 15.5011 12.3462C15.4078 12.3462 15.3163 12.3462 15.1479 12.3462C15.2815 12.4597 15.3529 12.52 15.4242 12.5804C16.2274 13.261 16.7452 14.1209 16.9282 15.1528C16.983 15.4602 17.0892 15.5114 17.3618 15.5096C20.0165 15.5023 22.6713 15.5041 25.3279 15.506C25.4376 15.506 25.5767 15.4712 25.648 15.5242C25.7834 15.623 25.9481 15.7639 25.9737 15.9103C26.0103 16.1207 25.8475 16.2707 25.6151 16.2872C25.5072 16.2945 25.3974 16.2927 25.2876 16.2927C22.6658 16.2927 20.0421 16.2927 17.4203 16.2927H17.016C16.8678 17.6539 16.2732 18.7407 15.1297 19.6189L15.1278 19.6116ZM0.888015 15.9542C0.878867 17.921 2.50538 19.5988 4.43013 19.6079C6.49209 19.6171 8.15703 17.9924 8.15703 15.9707C8.15703 13.9837 6.52868 12.3554 4.53076 12.3389C2.54564 12.3224 0.897163 13.9581 0.888015 15.9542ZM12.6341 7.90395C12.6981 6.15484 11.2491 4.2795 8.95657 4.2795C6.9806 4.2795 5.36689 5.96639 5.39799 7.96615C5.42909 9.94212 7.08488 11.5851 9.00231 11.5449C11.0661 11.5009 12.6615 9.90004 12.6341 7.90395ZM16.2018 16.0128C16.2146 14.002 14.5936 12.3535 12.592 12.3407C10.6288 12.3279 8.96389 13.9618 8.95108 15.9158C8.93644 17.9485 10.5593 19.5969 12.5755 19.6043C14.5424 19.6098 16.189 17.9796 16.2 16.0146L16.2018 16.0128ZM8.55406 17.9997C8.12227 18.5156 7.66304 19.0645 7.2221 19.5933H9.88235C9.4341 19.0554 8.97486 18.5047 8.55406 17.9997ZM8.5504 13.9508C8.96938 13.4476 9.42861 12.8951 9.86771 12.3682H7.2404C7.67951 12.8988 8.13325 13.4476 8.5504 13.9508Z" stroke="#191717" stroke-width="0.1" stroke-miterlimit="10" mask="url(#path-1-outside-1_241_35)"/>
<path d="M17.2605 10.2672H17.2355H17.2339H17.2323H17.2307H17.2291H17.2275H17.2259H17.2243H17.2227H17.2211H17.2195H17.2179H17.2163H17.2147H17.2131H17.2115H17.2099H17.2083H17.2067H17.2051H17.2036H17.202H17.2004H17.1988H17.1972H17.1956H17.194H17.1924H17.1908H17.1892H17.1876H17.186H17.1844H17.1828H17.1812H17.1796H17.178H17.1764H17.1748H17.1732H17.1716H17.17H17.1684H17.1668H17.1652H17.1636H17.162H17.1604H17.1588H17.1572H17.1556H17.154H17.1524H17.1508H17.1492H17.1476H17.146H17.1444H17.1428H17.1412H17.1396H17.138H17.1364H17.1348H17.1332H17.1316H17.13H17.1284H17.1268H17.1252H17.1236H17.122H17.1204H17.1188H17.1172H17.1156H17.114H17.1124H17.1108H17.1092H17.1076H17.106H17.1044H17.1028H17.1012H17.0996H17.098H17.0964H17.0948H17.0932H17.0916H17.09H17.0884H17.0868H17.0852H17.0836H17.082H17.0804H17.0788H17.0772H17.0756H17.074H17.0724H17.0708H17.0692H17.0676H17.066H17.0644H17.0628H17.0612H17.0596H17.058H17.0564H17.0548H17.0532H17.0516H17.05H17.0484H17.0468H17.0452H17.0436H17.042H17.0404H17.0388H17.0372H17.0356H17.034H17.0324H17.0308H17.0292H17.0276H17.026H17.0244H17.0228H17.0212H17.0196H17.0179H17.0163H17.0147H17.0131H17.0115H17.0099H17.0083H17.0067H17.0051H17.0035H17.0019H17.0003H16.9987H16.9971H16.9955H16.9939H16.9923H16.9907H16.9891H16.9875H16.9859H16.9843H16.9827H16.9811H16.9795H16.9779H16.9763H16.9747H16.9731H16.9715H16.9699H16.9683H16.9667H16.9651H16.9635H16.9619H16.9603H16.9587H16.9571H16.9555H16.9539H16.9523H16.9507H16.9491H16.9475H16.9459H16.9443H16.9427H16.9411H16.9395H16.9379H16.9363H16.9346H16.933H16.9314H16.9298H16.9282H16.9266H16.925H16.9234H16.9218H16.9202H16.9186H16.917H16.9154H16.9138H16.9122H16.9106H16.909H16.9074H16.9058H16.9042H16.9026H16.901H16.8994H16.8978H16.8962H16.8946H16.893H16.8914H16.8898H16.8882H16.8866H16.885H16.8834H16.8818H16.8802H16.8786H16.877H16.8754H16.8738H16.8722H16.8705H16.8689H16.8673H16.8657H16.8641H16.8625H16.8609H16.8593H16.8577H16.8561H16.8545H16.8529H16.8513H16.8497H16.8481H16.8465H16.8449H16.8433H16.8417H16.8401H16.8385H16.8369H16.8353H16.8337H16.8321H16.8305H16.8289H16.8273H16.8257H16.8241H16.8225H16.8209H16.8193H16.8177H16.8161H16.8145H16.8129H16.8112H16.8096H16.808H16.8064H16.8048H16.8032H16.8016H16.8H16.7984H16.7968H16.7952H16.7936H16.792H16.7904H16.7888H16.7872H16.7856H16.784H16.7824H16.7808H16.7792H16.7776H16.776H16.7744H16.7728H16.7712H16.7696H16.768H16.7664H16.7648H16.7632H16.7616H16.76H16.7584H16.7568H16.7552H16.7536H16.752H16.7503H16.7487H16.7471H16.7455H16.7439H16.7423H16.7407H16.7391H16.7375H16.7359H16.7343H16.7327H16.7311H16.7295H16.7279H16.7263H16.7247H16.7231H16.7215H16.7199H16.7183H16.7167H16.7151H16.7135H16.7119H16.7103H16.7087H16.7071H16.7055H16.7039H16.7023H16.7007H16.6991H16.6975H16.6959H16.6943H16.6927H16.6911H16.6895H16.6879H16.6863H16.6847H16.6831H16.6815H16.6798H16.6782H16.6766H16.675H16.6734H16.6718H16.6702H16.6686H16.667H16.6654H16.6638H16.6622H16.6606H16.659H16.6574H16.6558H16.6542H16.6526H16.651H16.6494H16.6478H16.6462H16.6446H16.643H16.6414H16.6398H16.6382H16.6366H16.635H16.6334H16.6318H16.6302H16.6286H16.627H16.6254H16.6238H16.6222H16.6206H16.619H16.6174H16.6158H16.6142H16.6126H16.611H16.6094H16.6078H16.6062H16.6046H16.603H16.6014H16.5998H16.5982H16.5966H16.595H16.5934H16.5918H16.5902H16.5886H16.587H16.5854H16.5838H16.5822H16.5806H16.579H16.5774H16.5758H16.5742H16.5726H16.571H16.5694H16.5678H16.5662H16.5646H16.563H16.5614H16.5598H16.5582H16.5565H16.5549H16.5533H16.5517H16.5501H16.5485H16.5469H16.5453H16.5437H16.5421H16.5405H16.5389H16.5373H16.5357H16.5341H16.5325H16.5309H16.5293H16.5277H16.5261H16.5245H16.5229H16.5213H16.5197H16.5181H16.5165H16.5149H16.5133H16.5118H16.5102H16.5086H16.507H16.5054H16.5038H16.5022H16.5006H16.499H16.4974H16.4958H16.4942H16.4926H16.491H16.4894H16.4878H16.4862H16.4846H16.483H16.4814H16.4798H16.4782H16.4766H16.475H16.4734H16.4718H16.4702H16.4686H16.467H16.4654H16.4638H16.4622H16.4606H16.459H16.4574H16.4558H16.4542H16.4526H16.451H16.4494H16.4478H16.4462H16.4446H16.443H16.4414H16.4398H16.4382H16.4366H16.435H16.4334H16.4318H16.4302H16.4286H16.427H16.4254H16.4238H16.4222H16.4206H16.419H16.4174H16.4158C16.2819 10.2672 16.1683 10.2328 16.0876 10.162C16.0065 10.0908 15.9618 9.98555 15.9609 9.85088L15.9609 9.8507C15.9609 9.71582 16.0061 9.61057 16.0877 9.53915C16.1687 9.46819 16.2827 9.43328 16.4157 9.43233L16.4157 9.43233C16.9519 9.42867 17.4862 9.42867 18.0224 9.43233L18.0224 9.43233C18.1532 9.43328 18.2668 9.46574 18.3479 9.53532C18.4298 9.60546 18.4754 9.71041 18.4754 9.84887C18.4754 9.98717 18.4308 10.0918 18.3493 10.1615C18.2685 10.2307 18.155 10.2626 18.0225 10.2636C18.0225 10.2636 18.0224 10.2636 18.0224 10.2636L17.2605 10.2672ZM17.2605 10.2672V10.2636M17.2605 10.2672V10.2636M17.2605 10.2636C17.3391 10.2637 17.418 10.264 17.497 10.2644L17.2605 10.2636Z" fill="#191717" stroke="#191717" stroke-width="0.05" stroke-miterlimit="10"/>
<path d="M17.0569 5.9619C17.0521 6.10115 17.0942 6.20849 17.1736 6.28117C17.2525 6.35336 17.3648 6.38829 17.495 6.39018L17.495 6.39018C18.0405 6.3975 18.5877 6.3975 19.1332 6.39018L19.1332 6.39018C19.2585 6.38828 19.3656 6.35167 19.442 6.28162C19.5188 6.21131 19.5621 6.10967 19.564 5.98317L19.564 5.98315C19.5659 5.84794 19.5253 5.74081 19.447 5.66747C19.369 5.59444 19.257 5.55806 19.122 5.55711L19.122 5.55711C18.9389 5.55589 18.7565 5.5563 18.5745 5.55671C18.4836 5.55691 18.3929 5.55711 18.3022 5.55711H18.1965L18.2001 5.55894H18.1994H18.1979H18.1964H18.1948H18.1933H18.1917H18.1902H18.1887H18.1871H18.1856H18.184H18.1825H18.181H18.1794H18.1779H18.1763H18.1748H18.1733H18.1717H18.1702H18.1686H18.1671H18.1656H18.164H18.1625H18.1609H18.1594H18.1579H18.1563H18.1548H18.1532H18.1517H18.1502H18.1486H18.1471H18.1455H18.144H18.1425H18.1409H18.1394H18.1378H18.1363H18.1348H18.1332H18.1317H18.1301H18.1286H18.1271H18.1255H18.124H18.1224H18.1209H18.1194H18.1178H18.1163H18.1147H18.1132H18.1117H18.1101H18.1086H18.107H18.1055H18.104H18.1024H18.1009H18.0994H18.0978H18.0963H18.0947H18.0932H18.0917H18.0901H18.0886H18.087H18.0855H18.084H18.0824H18.0809H18.0794H18.0778H18.0763H18.0747H18.0732H18.0717H18.0701H18.0686H18.067H18.0655H18.064H18.0624H18.0609H18.0594H18.0578H18.0563H18.0547H18.0532H18.0517H18.0501H18.0486H18.047H18.0455H18.044H18.0424H18.0409H18.0394H18.0378H18.0363H18.0347H18.0332H18.0317H18.0301H18.0286H18.0271H18.0255H18.024H18.0224H18.0209H18.0194H18.0178H18.0163H18.0148H18.0132H18.0117H18.0101H18.0086H18.0071H18.0055H18.004H18.0025H18.0009H17.9994H17.9979H17.9963H17.9948H17.9932H17.9917H17.9902H17.9886H17.9871H17.9856H17.984H17.9825H17.9809H17.9794H17.9779H17.9763H17.9748H17.9733H17.9717H17.9702H17.9687H17.9671H17.9656H17.964H17.9625H17.961H17.9594H17.9579H17.9564H17.9548H17.9533H17.9518H17.9502H17.9487H17.9471H17.9456H17.9441H17.9425H17.941H17.9395H17.9379H17.9364H17.9349H17.9333H17.9318H17.9302H17.9287H17.9272H17.9256H17.9241H17.9226H17.921H17.9195H17.918H17.9164H17.9149H17.9134H17.9118H17.9103H17.9087H17.9072H17.9057H17.9041H17.9026H17.9011H17.8995H17.898H17.8965H17.8949H17.8934H17.8919H17.8903H17.8888H17.8872H17.8857H17.8842H17.8826H17.8811H17.8796H17.878H17.8765H17.875H17.8734H17.8719H17.8704H17.8688H17.8673H17.8658H17.8642H17.8627H17.8612H17.8596H17.8581H17.8565H17.855H17.8535H17.8519H17.8504H17.8489H17.8473H17.8458H17.8443H17.8427H17.8412H17.8397H17.8381H17.8366H17.8351H17.8335H17.832H17.8305H17.8289H17.8274H17.8259H17.8243H17.8228H17.8212H17.8197H17.8182H17.8166H17.8151H17.8136H17.812H17.8105H17.809H17.8074H17.8059H17.8044H17.8028H17.8013H17.7998H17.7982H17.7967H17.7952H17.7936H17.7921H17.7906H17.789H17.7875H17.786H17.7844H17.7829H17.7814H17.7798H17.7783H17.7767H17.7752H17.7737H17.7721H17.7706H17.7691H17.7675H17.766H17.7645H17.7629H17.7614H17.7599H17.7583H17.7568H17.7553H17.7537H17.7522H17.7507H17.7491H17.7476H17.7461H17.7445H17.743H17.7415H17.7399H17.7384H17.7369H17.7353H17.7338H17.7323H17.7307H17.7292H17.7277H17.7261H17.7246H17.7231H17.7215H17.72H17.7185H17.7169H17.7154H17.7139H17.7123H17.7108H17.7093H17.7077H17.7062H17.7047H17.7031H17.7016H17.7001H17.6985H17.697H17.6955H17.6939H17.6924H17.6909H17.6893H17.6878H17.6863H17.6847H17.6832H17.6817H17.6801H17.6786H17.6771H17.6755H17.674H17.6725H17.6709H17.6694H17.6679H17.6663H17.6648H17.6633H17.6617H17.6602H17.6587H17.6571H17.6556H17.6541H17.6525H17.651H17.6495H17.6479H17.6464H17.6449H17.6433H17.6418H17.6403H17.6387H17.6372H17.6357H17.6341H17.6326H17.6311H17.6295H17.628H17.6265H17.6249H17.6234H17.6219H17.6203H17.6188H17.6173H17.6157H17.6142H17.6127H17.6111H17.6096H17.6081H17.6065H17.605H17.6035H17.6019H17.6004H17.5989H17.5973H17.5958H17.5943H17.5927H17.5912H17.5897H17.5881H17.5866H17.5851H17.5835H17.582H17.5805H17.5789H17.5774H17.5759H17.5743H17.5728H17.5713H17.5697H17.5682H17.5667H17.5651H17.5636H17.5621H17.5605H17.559H17.5575H17.5559H17.5544H17.5529H17.5513H17.5498H17.5483H17.5467H17.5452H17.5437H17.5421H17.5406H17.5391H17.5375H17.536H17.5345H17.5329H17.5314H17.5299H17.5283H17.5268H17.5253H17.5237H17.5222H17.5207H17.5191C17.3879 5.55894 17.274 5.58747 17.1915 5.65364C17.1083 5.72046 17.0607 5.8227 17.0569 5.9619ZM17.0569 5.9619C17.0569 5.96193 17.0569 5.96196 17.0569 5.96199L17.0819 5.96267L17.0569 5.96182C17.0569 5.96185 17.0569 5.96187 17.0569 5.9619Z" fill="#191717" stroke="#191717" stroke-width="0.05" stroke-miterlimit="10"/>
<path d="M24.565 8.24914H24.5246H24.523H24.5215H24.52H24.5184H24.5169H24.5154H24.5138H24.5123H24.5108H24.5092H24.5077H24.5062H24.5046H24.5031H24.5016H24.5H24.4985H24.497H24.4954H24.4939H24.4924H24.4908H24.4893H24.4878H24.4862H24.4847H24.4832H24.4816H24.4801H24.4786H24.477H24.4755H24.474H24.4724H24.4709H24.4694H24.4678H24.4663H24.4648H24.4632H24.4617H24.4602H24.4586H24.4571H24.4556H24.454H24.4525H24.451H24.4494H24.4479H24.4464H24.4448H24.4433H24.4418H24.4402H24.4387H24.4372H24.4356H24.4341H24.4326H24.431H24.4295H24.428H24.4264H24.4249H24.4234H24.4218H24.4203H24.4188H24.4172H24.4157H24.4142H24.4126H24.4111H24.4096H24.408H24.4065H24.405H24.4034H24.4019H24.4004H24.3988H24.3973H24.3958H24.3943H24.3927H24.3912H24.3897H24.3881H24.3866H24.3851H24.3835H24.382H24.3805H24.3789H24.3774H24.3759H24.3743H24.3728H24.3713H24.3697H24.3682H24.3667H24.3651H24.3636H24.3621H24.3605H24.359H24.3575H24.3559H24.3544H24.3529H24.3513H24.3498H24.3483H24.3467H24.3452H24.3437H24.3421H24.3406H24.3391H24.3375H24.336H24.3345H24.3329H24.3314H24.3299H24.3283H24.3268H24.3253H24.3237H24.3222H24.3207H24.3191H24.3176H24.3161H24.3145H24.313H24.3115H24.3099H24.3084H24.3069H24.3053H24.3038H24.3023H24.3007H24.2992H24.2977H24.2961H24.2946H24.2931H24.2915H24.29H24.2885H24.2869H24.2854H24.2839H24.2823H24.2808H24.2793H24.2777H24.2762H24.2747H24.2731H24.2716H24.2701H24.2685H24.267H24.2655H24.2639H24.2624H24.2609H24.2593H24.2578H24.2563H24.2547H24.2532H24.2517H24.2501H24.2486H24.2471H24.2455H24.244H24.2425H24.2409H24.2394H24.2379H24.2364H24.2348H24.2333H24.2318H24.2302H24.2287H24.2272H24.2256H24.2241H24.2226H24.221H24.2195H24.218H24.2164H24.2149H24.2134H24.2118H24.2103H24.2088H24.2072H24.2057H24.2042H24.2026H24.2011H24.1996H24.198H24.1965H24.195H24.1934H24.1919H24.1904H24.1888H24.1873H24.1858H24.1842H24.1827H24.1812H24.1796H24.1781H24.1766H24.175H24.1735H24.172H24.1704H24.1689H24.1674H24.1658H24.1643H24.1628H24.1612H24.1597H24.1582H24.1566H24.1551H24.1536H24.152H24.1505H24.149H24.1474H24.1459H24.1444H24.1428H24.1413H24.1398H24.1382H24.1367H24.1352H24.1336H24.1321H24.1306H24.129H24.1275H24.126H24.1244H24.1229H24.1214H24.1198H24.1183H24.1168H24.1152H24.1137H24.1122H24.1106H24.1091H24.1076H24.106H24.1045H24.103H24.1014H24.0999H24.0984H24.0968H24.0953H24.0938H24.0922H24.0907H24.0892H24.0876H24.0861H24.0846H24.083H24.0815H24.08H24.0785H24.0769H24.0754H24.0739H24.0723H24.0708H24.0693H24.0677H24.0662H24.0647H24.0631H24.0616H24.0601H24.0585H24.057H24.0555H24.0539H24.0524H24.0509H24.0493H24.0478H24.0463H24.0447H24.0432H24.0417H24.0401H24.0386H24.0371H24.0355H24.034H24.0325H24.0309H24.0294H24.0279H24.0263H24.0248H24.0233H24.0217H24.0202H24.0187H24.0171H24.0156H24.0141H24.0125H24.011H24.0095H24.0079H24.0064H24.0049H24.0033H24.0018H24.0003H23.9987H23.9972H23.9957H23.9941H23.9926H23.9911H23.9895H23.988H23.9865H23.9849H23.9834H23.9819H23.9803H23.9788H23.9773H23.9757H23.9742H23.9727H23.9711H23.9696H23.9681H23.9665H23.965H23.9635H23.9619H23.9604H23.9589H23.9573H23.9558H23.9543H23.9527H23.9512H23.9497H23.9481H23.9466H23.9451H23.9435H23.942H23.9405H23.9389H23.9374H23.9359H23.9343H23.9328H23.9313H23.9297H23.9282H23.9267H23.9251H23.9236H23.9221H23.9205H23.919H23.9175H23.916H23.9144H23.9129H23.9114H23.9098H23.9083H23.9068H23.9052H23.9037H23.9022H23.9006H23.8991H23.8976H23.896H23.8945H23.893H23.8914H23.8899H23.8884H23.8868H23.8853H23.8838H23.8822H23.8807H23.8792H23.8776H23.8761H23.8746H23.873H23.8715H23.87H23.8684H23.8669H23.8654H23.8638H23.8623H23.8608H23.8592H23.8577H23.8562H23.8546H23.8531H23.8516H23.85H23.8485H23.847H23.8454H23.8439H23.8424H23.8408H23.8393H23.8378H23.8362H23.8347H23.8332H23.8316H23.8301H23.8286H23.827H23.8255H23.824H23.8224H23.8209H23.8194H23.8178H23.8163H23.8148H23.8132H23.8117H23.8102H23.8086H23.8071H23.8056H23.804H23.8025H23.801H23.7994H23.7979H23.7964H23.7948H23.7933H23.7918H23.7902H23.7887H23.7872H23.7856H23.7841H23.7826H23.781H23.7795H23.778H23.7764H23.7749H23.7734H23.7718H23.7703H23.7688H23.7672H23.7657H23.7642H23.7626H23.7611H23.7596H23.7581H23.7565H23.755H23.7535H23.7519H23.7504H23.7489H23.7473H23.7458H23.7443H23.7427H23.7412H23.7397C23.6104 8.24914 23.4966 8.22206 23.4136 8.15663C23.3297 8.09047 23.2812 7.98811 23.2774 7.84608L24.565 8.24914ZM24.565 8.24914L24.5632 8.24549M24.565 8.24914L24.5632 8.24549M24.5632 8.24549C24.6405 8.24554 24.7178 8.24571 24.7951 8.24588C24.9769 8.24629 25.1589 8.2467 25.3407 8.24548L25.3407 8.24548C25.4651 8.24453 25.5725 8.21439 25.6507 8.14936C25.7294 8.08385 25.7751 7.98565 25.7809 7.85566L25.7559 7.85456M24.5632 8.24549L25.3515 7.4429C25.6059 7.44838 25.7687 7.59109 25.7559 7.85456M25.7559 7.85456C25.7449 8.10338 25.5821 8.21865 25.3406 8.22048M25.7559 7.85456L25.7808 7.85577C25.7875 7.71849 25.7484 7.60942 25.6714 7.53411C25.5947 7.45914 25.4836 7.42074 25.3521 7.4179L25.352 7.4179L25.3406 8.22048M25.3406 8.22048C25.1588 8.2217 24.9771 8.22129 24.7953 8.22088C24.7138 8.2207 24.6322 8.22052 24.5507 8.22048L25.3406 8.22048ZM23.7155 7.4179C23.5872 7.41979 23.4754 7.45377 23.3963 7.52546C23.3166 7.59766 23.2736 7.705 23.2774 7.84608L23.7155 7.4179Z" fill="#191717" stroke="#191717" stroke-width="0.05" stroke-miterlimit="10"/>
<path d="M21.7101 14.4534L21.7101 14.4534L21.7103 14.4534C21.8924 14.4571 22.0756 14.4559 22.2582 14.4546C22.3492 14.454 22.44 14.4534 22.5304 14.4534V14.4284C22.617 14.4284 22.7037 14.429 22.7905 14.4296C22.9655 14.4309 23.1409 14.4321 23.3153 14.4284C23.5715 14.4229 23.7453 14.2912 23.7453 14.0332C23.7453 13.7752 23.577 13.6453 23.3153 13.6453C23.1366 13.6453 22.958 13.6451 22.7795 13.6449C22.4228 13.6445 22.0663 13.6441 21.709 13.6453C21.4528 13.6472 21.2827 13.7698 21.2827 14.0351C21.2827 14.3003 21.4583 14.4211 21.7108 14.4284C21.8926 14.4321 22.0752 14.4309 22.2576 14.4296C22.348 14.429 22.4384 14.4284 22.5286 14.4284V14.4534C22.6154 14.4534 22.7025 14.454 22.7899 14.4546C22.9651 14.4559 23.141 14.4571 23.3159 14.4534L23.3159 14.4534C23.4478 14.4506 23.5616 14.4152 23.6428 14.3443C23.7246 14.273 23.7703 14.1682 23.7703 14.0332C23.7703 13.8985 23.7261 13.794 23.6448 13.7236C23.564 13.6537 23.45 13.6203 23.3153 13.6203C23.1366 13.6203 22.9581 13.6201 22.7796 13.6199C22.4228 13.6195 22.0662 13.6191 21.7089 13.6203L21.7088 13.6203C21.5772 13.6213 21.464 13.6532 21.3835 13.7224C21.3022 13.7922 21.2577 13.8968 21.2577 14.0351C21.2577 14.1736 21.3038 14.2777 21.3858 14.3475C21.4671 14.4167 21.5804 14.4496 21.7101 14.4534Z" fill="#191717" stroke="#191717" stroke-width="0.05" stroke-miterlimit="10"/>
<path d="M28.7018 16.3086H28.7016H28.7H28.6984H28.6968H28.6952H28.6936H28.692H28.6904H28.6888H28.6872H28.6856H28.684H28.6824H28.6808H28.6792H28.6776H28.676H28.6744H28.6728H28.6712H28.6696H28.668H28.6664H28.6648H28.6632H28.6616H28.66H28.6584H28.6568H28.6552H28.6537H28.6521H28.6505H28.6489H28.6473H28.6457H28.6441H28.6425H28.6409H28.6393H28.6377H28.6361H28.6345H28.6329H28.6313H28.6297H28.6281H28.6265H28.6249H28.6233H28.6217H28.6201H28.6185H28.6169H28.6153H28.6137H28.6121H28.6105H28.6089H28.6073H28.6057H28.6041H28.6025H28.6009H28.5993H28.5977H28.5961H28.5945H28.5929H28.5913H28.5897H28.5881H28.5865H28.585H28.5834H28.5818H28.5802H28.5786H28.577H28.5754H28.5738H28.5722H28.5706H28.569H28.5674H28.5658H28.5642H28.5626H28.561H28.5594H28.5578H28.5562H28.5546H28.553H28.5514H28.5498H28.5482H28.5466H28.545H28.5434H28.5418H28.5402H28.5386H28.537H28.5354H28.5338H28.5322H28.5306H28.529H28.5274H28.5258H28.5242H28.5226H28.521H28.5194H28.5178H28.5162H28.5146H28.513H28.5114H28.5098H28.5082H28.5066H28.505H28.5034H28.5018H28.5003H28.4987H28.4971H28.4955H28.4939H28.4923H28.4907H28.4891H28.4875H28.4859H28.4843H28.4827H28.4811H28.4795H28.4779H28.4763H28.4747H28.4731H28.4715H28.4699H28.4683H28.4667H28.4651H28.4635H28.4619H28.4603H28.4587H28.4571H28.4555H28.4539H28.4523H28.4507H28.4491H28.4475H28.4459H28.4443H28.4427H28.4411H28.4395H28.4379H28.4363H28.4347H28.4331H28.4315H28.4299H28.4283H28.4267H28.4251H28.4235H28.4219H28.4203H28.4187H28.4171H28.4155H28.4139H28.4123H28.4107H28.4091H28.4075H28.4059H28.4043H28.4027H28.4011H28.3995H28.3979H28.3963H28.3947H28.3931H28.3915H28.3899H28.3883H28.3867H28.3851H28.3835H28.3819H28.3803H28.3787H28.3771H28.3755H28.3739H28.3723H28.3707H28.3691H28.3675H28.3659H28.3643H28.3627H28.3611H28.3595H28.3579H28.3563H28.3547H28.3531H28.3515H28.3499H28.3483H28.3467H28.3451H28.3435H28.3419H28.3403H28.3387H28.3371H28.3355H28.3339H28.3323H28.3307H28.3291H28.3275H28.3259H28.3243H28.3227H28.3211H28.3195H28.3179H28.3163H28.3147H28.3131H28.3115H28.3099H28.3083H28.3067H28.3051H28.3035H28.3019H28.3003H28.2987H28.2971H28.2955H28.2939H28.2923H28.2907H28.2891H28.2875H28.2859H28.2843H28.2827H28.2811H28.2795H28.2779H28.2763H28.2747H28.2731H28.2715H28.2699H28.2683H28.2667H28.2651H28.2635H28.2619H28.2603H28.2587H28.2571H28.2555H28.2539H28.2523H28.2507H28.2491H28.2475H28.2459H28.2443H28.2427H28.2411H28.2395H28.2379H28.2363H28.2347H28.2331H28.2315H28.2299H28.2283H28.2267H28.2251H28.2235H28.2218H28.2202H28.2186H28.217H28.2154H28.2138H28.2122H28.2106H28.209H28.2074H28.2058H28.2042H28.2026H28.201H28.1994H28.1978H28.1962H28.1946H28.193H28.1914H28.1898H28.1882H28.1866H28.185H28.1834H28.1818H28.1802H28.1786H28.177H28.1754H28.1738H28.1722H28.1706H28.169H28.1674H28.1658H28.1642H28.1626H28.161H28.1593H28.1577H28.1561H28.1545H28.1529H28.1513H28.1497H28.1481H28.1465H28.1449H28.1433H28.1417H28.1401H28.1385H28.1369H28.1353H28.1337H28.1321H28.1305H28.1289H28.1273H28.1257H28.1241H28.1225H28.1209H28.1193H28.1177H28.1161H28.1144H28.1128H28.1112H28.1096H28.108H28.1064H28.1048H28.1032H28.1016H28.1H28.0984H28.0968H28.0952H28.0936H28.092H28.0904H28.0888H28.0872H28.0856H28.084H28.0824H28.0808H28.0792H28.0775H28.0759H28.0743H28.0727H28.0711H28.0695H28.0679H28.0663H28.0647H28.0631H28.0615H28.0599H28.0583H28.0567H28.0551H28.0535H28.0519H28.0503H28.0487H28.047H28.0454H28.0438H28.0422H28.0406H28.039H28.0374H28.0358H28.0342H28.0326H28.031H28.0294H28.0278H28.0262H28.0246H28.023H28.0214H28.0197H28.0181H28.0165H28.0149H28.0133H28.0117H28.0101H28.0085H28.0069H28.0053H28.0037H28.0021H28.0005H27.9989H27.9973H27.9957H27.994H27.9924H27.9908H27.9892H27.9876H27.986H27.9844H27.9828H27.9812H27.9796H27.978H27.9764H27.9748H27.9732H27.9715H27.9699H27.9683H27.9667H27.9651H27.9635H27.9619H27.9603H27.9587H27.9571H27.9555H27.9539H27.9523H27.9506H27.949H27.9474H27.9458H27.9442H27.9426C27.815 16.3086 27.707 16.2755 27.6292 16.2085C27.551 16.1413 27.5062 16.0424 27.5005 15.9169L27.5005 15.9169C27.4947 15.7812 27.5354 15.6718 27.6135 15.596C27.6912 15.5205 27.8031 15.4811 27.9349 15.4791C27.9349 15.4791 27.9349 15.4791 27.9349 15.4791L28.7018 16.3086ZM28.7018 16.3086L28.7 16.3104H28.7604H28.762H28.7635H28.7651H28.7666H28.7682H28.7697H28.7712H28.7728H28.7743H28.7759H28.7774H28.779H28.7805H28.7821H28.7836H28.7851H28.7867H28.7882H28.7898H28.7913H28.7929H28.7944H28.7959H28.7975H28.799H28.8006H28.8021H28.8037H28.8052H28.8067H28.8083H28.8098H28.8114H28.8129H28.8144H28.816H28.8175H28.8191H28.8206H28.8222H28.8237H28.8252H28.8268H28.8283H28.8299H28.8314H28.833H28.8345H28.836H28.8376H28.8391H28.8407H28.8422H28.8437H28.8453H28.8468H28.8484H28.8499H28.8515H28.853H28.8545H28.8561H28.8576H28.8592H28.8607H28.8622H28.8638H28.8653H28.8669H28.8684H28.8699H28.8715H28.873H28.8746H28.8761H28.8777H28.8792H28.8807H28.8823H28.8838H28.8854H28.8869H28.8884H28.89H28.8915H28.8931H28.8946H28.8961H28.8977H28.8992H28.9008H28.9023H28.9038H28.9054H28.9069H28.9085H28.91H28.9115H28.9131H28.9146H28.9162H28.9177H28.9192H28.9208H28.9223H28.9239H28.9254H28.9269H28.9285H28.93H28.9316H28.9331H28.9346H28.9362H28.9377H28.9393H28.9408H28.9423H28.9439H28.9454H28.947H28.9485H28.95H28.9516H28.9531H28.9546H28.9562H28.9577H28.9593H28.9608H28.9623H28.9639H28.9654H28.967H28.9685H28.97H28.9716H28.9731H28.9747H28.9762H28.9777H28.9793H28.9808H28.9823H28.9839H28.9854H28.987H28.9885H28.99H28.9916H28.9931H28.9947H28.9962H28.9977H28.9993H29.0008H29.0023H29.0039H29.0054H29.007H29.0085H29.01H29.0116H29.0131H29.0146H29.0162H29.0177H29.0193H29.0208H29.0223H29.0239H29.0254H29.027H29.0285H29.03H29.0316H29.0331H29.0346H29.0362H29.0377H29.0393H29.0408H29.0423H29.0439H29.0454H29.0469H29.0485H29.05H29.0516H29.0531H29.0546H29.0562H29.0577H29.0592H29.0608H29.0623H29.0638H29.0654H29.0669H29.0685H29.07H29.0715H29.0731H29.0746H29.0761H29.0777H29.0792H29.0808H29.0823H29.0838H29.0854H29.0869H29.0884H29.09H29.0915H29.093H29.0946H29.0961H29.0977H29.0992H29.1007H29.1023H29.1038H29.1053H29.1069H29.1084H29.1099H29.1115H29.113H29.1146H29.1161H29.1176H29.1192H29.1207H29.1222H29.1238H29.1253H29.1268H29.1284H29.1299H29.1315H29.133H29.1345H29.1361H29.1376H29.1391H29.1407H29.1422H29.1437H29.1453H29.1468H29.1484H29.1499H29.1514H29.153H29.1545H29.156H29.1576H29.1591H29.1606H29.1622H29.1637H29.1652H29.1668H29.1683H29.1698H29.1714H29.1729H29.1745H29.176H29.1775H29.1791H29.1806H29.1821H29.1837H29.1852H29.1867H29.1883H29.1898H29.1913H29.1929H29.1944H29.196H29.1975H29.199H29.2006H29.2021H29.2036H29.2052H29.2067H29.2082H29.2098H29.2113H29.2128H29.2144H29.2159H29.2174H29.219H29.2205H29.222H29.2236H29.2251H29.2266H29.2282H29.2297H29.2313H29.2328H29.2343H29.2359H29.2374H29.2389H29.2405H29.242H29.2435H29.2451H29.2466H29.2481H29.2497H29.2512H29.2527H29.2543H29.2558H29.2573H29.2589H29.2604H29.2619H29.2635H29.265H29.2665H29.2681H29.2696H29.2712H29.2727H29.2742H29.2758H29.2773H29.2788H29.2804H29.2819H29.2834H29.285H29.2865H29.288H29.2896H29.2911H29.2926H29.2942H29.2957H29.2972H29.2988H29.3003H29.3018H29.3034H29.3049H29.3064H29.308H29.3095H29.311H29.3126H29.3141H29.3156H29.3172H29.3187H29.3202H29.3218H29.3233H29.3248H29.3264H29.3279H29.3294H29.331H29.3325H29.334H29.3356H29.3371H29.3386H29.3402H29.3417H29.3433H29.3448H29.3463H29.3479H29.3494H29.3509H29.3525H29.354H29.3555H29.3571H29.3586H29.3601H29.3617H29.3632H29.3647H29.3663H29.3678H29.3693H29.3709H29.3724H29.3739H29.3755H29.377H29.3785H29.3801H29.3816H29.3831H29.3847H29.3862H29.3877H29.3893H29.3908H29.3923H29.3939H29.3954H29.3969H29.3985H29.4H29.4015H29.4031H29.4046H29.4061H29.4077H29.4092H29.4107H29.4123H29.4138H29.4153H29.4169H29.4184H29.4199H29.4215H29.423H29.4245H29.4261H29.4276H29.4291H29.4307H29.4322H29.4337H29.4353H29.4368H29.4383H29.4399H29.4414H29.4429H29.4445H29.446H29.4475H29.4491H29.4506H29.4521H29.4537H29.4552H29.4567H29.4583H29.4598H29.4613H29.4629H29.4644H29.4659H29.4675H29.469H29.4705H29.4721H29.4736H29.4751H29.4767H29.4782H29.4797H29.4813H29.4828H29.4843H29.4859H29.4874H29.4889H29.4905H29.492H29.4935H29.4951H29.4966H29.4981H29.4996H29.5012H29.5027H29.5042H29.5058H29.5073H29.5088H29.5104H29.5119H29.5134H29.515H29.5165H29.518H29.5196H29.5211H29.5226H29.5242H29.5257H29.5272H29.5288H29.5303H29.5318H29.5334H29.5349H29.5364H29.538H29.5395H29.541H29.5426H29.5441H29.5456H29.5472C29.6785 16.3104 29.7928 16.2814 29.8758 16.2153C29.9597 16.1486 30.0083 16.0469 30.0131 15.9094C30.0179 15.7717 29.9752 15.664 29.8955 15.5905C29.8163 15.5175 29.7036 15.481 29.5732 15.4791C29.5732 15.4791 29.5732 15.4791 29.5731 15.4791L28.7018 16.3086Z" fill="#191717" stroke="#191717" stroke-width="0.05" stroke-miterlimit="10"/>
<mask id="path-7-outside-2_241_35" maskUnits="userSpaceOnUse" x="17.7631" y="16.5183" width="4" height="2" fill="black">
<rect fill="white" x="17.7631" y="16.5183" width="4" height="2"/>
<path d="M19.9688 18.3053C19.7072 18.3053 19.4455 18.309 19.1839 18.3053C18.9259 18.3017 18.7613 18.1718 18.7631 17.9083C18.7668 17.6448 18.9369 17.5223 19.193 17.5204C19.7273 17.5186 20.2615 17.5168 20.7958 17.5204C21.0501 17.5223 21.2184 17.6485 21.2148 17.9174C21.2111 18.1864 21.0391 18.3017 20.7866 18.3035C20.514 18.3072 20.2414 18.3035 19.9688 18.3035V18.3053Z"/>
</mask>
<path d="M19.9688 18.3053C19.7072 18.3053 19.4455 18.309 19.1839 18.3053C18.9259 18.3017 18.7613 18.1718 18.7631 17.9083C18.7668 17.6448 18.9369 17.5223 19.193 17.5204C19.7273 17.5186 20.2615 17.5168 20.7958 17.5204C21.0501 17.5223 21.2184 17.6485 21.2148 17.9174C21.2111 18.1864 21.0391 18.3017 20.7866 18.3035C20.514 18.3072 20.2414 18.3035 19.9688 18.3035V18.3053Z" fill="#191717"/>
<path d="M19.9688 18.3053V18.3553H20.0188V18.3053H19.9688ZM19.1839 18.3053L19.1832 18.3553L19.1832 18.3553L19.1839 18.3053ZM18.7631 17.9083L18.7131 17.9076L18.7131 17.908L18.7631 17.9083ZM19.193 17.5204L19.1929 17.4704L19.1927 17.4704L19.193 17.5204ZM20.7958 17.5204L20.7961 17.4704L20.7961 17.4704L20.7958 17.5204ZM20.7866 18.3035L20.7863 18.2535L20.786 18.2535L20.7866 18.3035ZM19.9688 18.3035V18.2535H19.9188V18.3035H19.9688ZM19.9688 18.2553C19.7062 18.2553 19.4458 18.259 19.1846 18.2553L19.1832 18.3553C19.4452 18.359 19.7082 18.3553 19.9688 18.3553V18.2553ZM19.1846 18.2553C19.0632 18.2536 18.9708 18.2222 18.9095 18.1671C18.8492 18.1128 18.8123 18.0294 18.8131 17.9086L18.7131 17.908C18.7121 18.0506 18.7565 18.1639 18.8426 18.2414C18.9277 18.318 19.0466 18.3534 19.1832 18.3553L19.1846 18.2553ZM18.8131 17.909C18.8148 17.7885 18.8539 17.7069 18.9158 17.6543C18.9789 17.6007 19.0725 17.5713 19.1934 17.5704L19.1927 17.4704C19.0575 17.4714 18.9379 17.5042 18.851 17.5782C18.7628 17.6532 18.7151 17.7646 18.7131 17.9076L18.8131 17.909ZM19.1932 17.5704C19.7275 17.5686 20.2615 17.5668 20.7954 17.5704L20.7961 17.4704C20.2616 17.4668 19.7271 17.4686 19.1929 17.4704L19.1932 17.5704ZM20.7954 17.5704C20.9151 17.5713 21.0074 17.6014 21.0688 17.6561C21.129 17.7098 21.1664 17.7933 21.1648 17.9168L21.2648 17.9181C21.2667 17.7726 21.2219 17.6586 21.1353 17.5814C21.0498 17.5053 20.9307 17.4714 20.7961 17.4704L20.7954 17.5704ZM21.1648 17.9168C21.1631 18.04 21.1234 18.1209 21.062 18.1723C20.999 18.2248 20.9059 18.2526 20.7863 18.2535L20.787 18.3535C20.9199 18.3525 21.039 18.3218 21.1261 18.249C21.2146 18.175 21.2628 18.0638 21.2648 17.9181L21.1648 17.9168ZM20.786 18.2535C20.5137 18.2572 20.2424 18.2535 19.9688 18.2535V18.3535C20.2405 18.3535 20.5143 18.3572 20.7873 18.3535L20.786 18.2535ZM19.9188 18.3035V18.3053H20.0188V18.3035H19.9188Z" fill="#191717" mask="url(#path-7-outside-2_241_35)"/>
<path d="M2.00462 15.9613L2.00462 15.9613C2.01386 14.5717 3.16485 13.4315 4.54377 13.4463C5.92045 13.4611 7.04207 14.5882 7.04761 15.9632C7.05315 17.3487 5.91765 18.4865 4.5252 18.4875L2.00462 15.9613ZM2.00462 15.9613C1.99723 17.3486 3.1309 18.4865 4.52337 18.4875L2.00462 15.9613ZM4.51442 17.6526L4.48922 17.6524V17.654C3.5705 17.6334 2.83242 16.8779 2.84135 15.9617C2.85037 15.0367 3.62049 14.2759 4.53776 14.2849C5.45904 14.2939 6.22172 15.0658 6.21271 15.9831C6.2037 16.9098 5.44285 17.6598 4.51442 17.6526Z" fill="#191717" stroke="#191717" stroke-width="0.05" stroke-miterlimit="10"/>
<path d="M9.01858 10.4319L9.01855 10.4319C7.62889 10.4263 6.49616 9.28439 6.50355 7.89651C6.51095 6.52334 7.63815 5.39811 9.01665 5.38887C10.4041 5.37964 11.5401 6.51337 11.5411 7.90945L9.01858 10.4319ZM9.01858 10.4319C10.4114 10.4356 11.5401 9.30739 11.5411 7.91128L9.01858 10.4319ZM9.03848 6.22377C9.96874 6.23459 10.7097 6.9899 10.7043 7.92395C10.6989 8.85606 9.93992 9.60415 9.01157 9.59513C8.08491 9.58612 7.33307 8.82161 7.34028 7.89684C7.34749 6.97381 8.11934 6.21295 9.03848 6.22377Z" fill="#191717" stroke="#191717" stroke-width="0.05" stroke-miterlimit="10"/>
<path d="M15.0924 15.9669V15.9669L12.5718 18.4625L12.5717 18.4875C12.5718 18.4875 12.5718 18.4875 12.5718 18.4875C13.9707 18.493 15.0924 17.3694 15.0924 15.9688V15.9669ZM14.2557 15.9652V15.9653C14.2611 16.901 13.5185 17.6508 12.5846 17.6545C11.6597 17.6581 10.8952 16.9007 10.8898 15.9796C10.8844 15.064 11.6508 14.2903 12.5702 14.2849C13.4911 14.2795 14.2521 15.0366 14.2557 15.9652Z" fill="#191717" stroke="#191717" stroke-width="0.05" stroke-miterlimit="10"/>
</svg>
